%TF.GenerationSoftware,KiCad,Pcbnew,7.0.8*%
%TF.CreationDate,2023-10-17T13:28:15-07:00*%
%TF.ProjectId,Lab2Main,4c616232-4d61-4696-9e2e-6b696361645f,rev?*%
%TF.SameCoordinates,Original*%
%TF.FileFunction,Legend,Top*%
%TF.FilePolarity,Positive*%
%FSLAX46Y46*%
G04 Gerber Fmt 4.6, Leading zero omitted, Abs format (unit mm)*
G04 Created by KiCad (PCBNEW 7.0.8) date 2023-10-17 13:28:15*
%MOMM*%
%LPD*%
G01*
G04 APERTURE LIST*
%ADD10C,0.150000*%
%ADD11C,0.120000*%
G04 APERTURE END LIST*
D10*
X188296779Y-121789819D02*
X188296779Y-120789819D01*
X188296779Y-121266009D02*
X188868207Y-121266009D01*
X188868207Y-121789819D02*
X188868207Y-120789819D01*
X189725350Y-121742200D02*
X189630112Y-121789819D01*
X189630112Y-121789819D02*
X189439636Y-121789819D01*
X189439636Y-121789819D02*
X189344398Y-121742200D01*
X189344398Y-121742200D02*
X189296779Y-121646961D01*
X189296779Y-121646961D02*
X189296779Y-121266009D01*
X189296779Y-121266009D02*
X189344398Y-121170771D01*
X189344398Y-121170771D02*
X189439636Y-121123152D01*
X189439636Y-121123152D02*
X189630112Y-121123152D01*
X189630112Y-121123152D02*
X189725350Y-121170771D01*
X189725350Y-121170771D02*
X189772969Y-121266009D01*
X189772969Y-121266009D02*
X189772969Y-121361247D01*
X189772969Y-121361247D02*
X189296779Y-121456485D01*
X190201541Y-121123152D02*
X190201541Y-121789819D01*
X190201541Y-121218390D02*
X190249160Y-121170771D01*
X190249160Y-121170771D02*
X190344398Y-121123152D01*
X190344398Y-121123152D02*
X190487255Y-121123152D01*
X190487255Y-121123152D02*
X190582493Y-121170771D01*
X190582493Y-121170771D02*
X190630112Y-121266009D01*
X190630112Y-121266009D02*
X190630112Y-121789819D01*
X191249160Y-121789819D02*
X191153922Y-121742200D01*
X191153922Y-121742200D02*
X191106303Y-121694580D01*
X191106303Y-121694580D02*
X191058684Y-121599342D01*
X191058684Y-121599342D02*
X191058684Y-121313628D01*
X191058684Y-121313628D02*
X191106303Y-121218390D01*
X191106303Y-121218390D02*
X191153922Y-121170771D01*
X191153922Y-121170771D02*
X191249160Y-121123152D01*
X191249160Y-121123152D02*
X191392017Y-121123152D01*
X191392017Y-121123152D02*
X191487255Y-121170771D01*
X191487255Y-121170771D02*
X191534874Y-121218390D01*
X191534874Y-121218390D02*
X191582493Y-121313628D01*
X191582493Y-121313628D02*
X191582493Y-121599342D01*
X191582493Y-121599342D02*
X191534874Y-121694580D01*
X191534874Y-121694580D02*
X191487255Y-121742200D01*
X191487255Y-121742200D02*
X191392017Y-121789819D01*
X191392017Y-121789819D02*
X191249160Y-121789819D01*
X192011065Y-121789819D02*
X192011065Y-120789819D01*
X192106303Y-121408866D02*
X192392017Y-121789819D01*
X192392017Y-121123152D02*
X192011065Y-121504104D01*
X193534875Y-121504104D02*
X194011065Y-121504104D01*
X193439637Y-121789819D02*
X193772970Y-120789819D01*
X193772970Y-120789819D02*
X194106303Y-121789819D01*
X194392018Y-121742200D02*
X194487256Y-121789819D01*
X194487256Y-121789819D02*
X194677732Y-121789819D01*
X194677732Y-121789819D02*
X194772970Y-121742200D01*
X194772970Y-121742200D02*
X194820589Y-121646961D01*
X194820589Y-121646961D02*
X194820589Y-121599342D01*
X194820589Y-121599342D02*
X194772970Y-121504104D01*
X194772970Y-121504104D02*
X194677732Y-121456485D01*
X194677732Y-121456485D02*
X194534875Y-121456485D01*
X194534875Y-121456485D02*
X194439637Y-121408866D01*
X194439637Y-121408866D02*
X194392018Y-121313628D01*
X194392018Y-121313628D02*
X194392018Y-121266009D01*
X194392018Y-121266009D02*
X194439637Y-121170771D01*
X194439637Y-121170771D02*
X194534875Y-121123152D01*
X194534875Y-121123152D02*
X194677732Y-121123152D01*
X194677732Y-121123152D02*
X194772970Y-121170771D01*
X195201542Y-121742200D02*
X195296780Y-121789819D01*
X195296780Y-121789819D02*
X195487256Y-121789819D01*
X195487256Y-121789819D02*
X195582494Y-121742200D01*
X195582494Y-121742200D02*
X195630113Y-121646961D01*
X195630113Y-121646961D02*
X195630113Y-121599342D01*
X195630113Y-121599342D02*
X195582494Y-121504104D01*
X195582494Y-121504104D02*
X195487256Y-121456485D01*
X195487256Y-121456485D02*
X195344399Y-121456485D01*
X195344399Y-121456485D02*
X195249161Y-121408866D01*
X195249161Y-121408866D02*
X195201542Y-121313628D01*
X195201542Y-121313628D02*
X195201542Y-121266009D01*
X195201542Y-121266009D02*
X195249161Y-121170771D01*
X195249161Y-121170771D02*
X195344399Y-121123152D01*
X195344399Y-121123152D02*
X195487256Y-121123152D01*
X195487256Y-121123152D02*
X195582494Y-121170771D01*
X196487256Y-121789819D02*
X196487256Y-121266009D01*
X196487256Y-121266009D02*
X196439637Y-121170771D01*
X196439637Y-121170771D02*
X196344399Y-121123152D01*
X196344399Y-121123152D02*
X196153923Y-121123152D01*
X196153923Y-121123152D02*
X196058685Y-121170771D01*
X196487256Y-121742200D02*
X196392018Y-121789819D01*
X196392018Y-121789819D02*
X196153923Y-121789819D01*
X196153923Y-121789819D02*
X196058685Y-121742200D01*
X196058685Y-121742200D02*
X196011066Y-121646961D01*
X196011066Y-121646961D02*
X196011066Y-121551723D01*
X196011066Y-121551723D02*
X196058685Y-121456485D01*
X196058685Y-121456485D02*
X196153923Y-121408866D01*
X196153923Y-121408866D02*
X196392018Y-121408866D01*
X196392018Y-121408866D02*
X196487256Y-121361247D01*
X197106304Y-121789819D02*
X197011066Y-121742200D01*
X197011066Y-121742200D02*
X196963447Y-121646961D01*
X196963447Y-121646961D02*
X196963447Y-120789819D01*
X197487257Y-121789819D02*
X197487257Y-121123152D01*
X197487257Y-120789819D02*
X197439638Y-120837438D01*
X197439638Y-120837438D02*
X197487257Y-120885057D01*
X197487257Y-120885057D02*
X197534876Y-120837438D01*
X197534876Y-120837438D02*
X197487257Y-120789819D01*
X197487257Y-120789819D02*
X197487257Y-120885057D01*
X197820590Y-121123152D02*
X198201542Y-121123152D01*
X197963447Y-121789819D02*
X197963447Y-120932676D01*
X197963447Y-120932676D02*
X198011066Y-120837438D01*
X198011066Y-120837438D02*
X198106304Y-120789819D01*
X198106304Y-120789819D02*
X198201542Y-120789819D01*
X158688095Y-106024819D02*
X158688095Y-106834342D01*
X158688095Y-106834342D02*
X158735714Y-106929580D01*
X158735714Y-106929580D02*
X158783333Y-106977200D01*
X158783333Y-106977200D02*
X158878571Y-107024819D01*
X158878571Y-107024819D02*
X159069047Y-107024819D01*
X159069047Y-107024819D02*
X159164285Y-106977200D01*
X159164285Y-106977200D02*
X159211904Y-106929580D01*
X159211904Y-106929580D02*
X159259523Y-106834342D01*
X159259523Y-106834342D02*
X159259523Y-106024819D01*
X160259523Y-107024819D02*
X159688095Y-107024819D01*
X159973809Y-107024819D02*
X159973809Y-106024819D01*
X159973809Y-106024819D02*
X159878571Y-106167676D01*
X159878571Y-106167676D02*
X159783333Y-106262914D01*
X159783333Y-106262914D02*
X159688095Y-106310533D01*
X134189580Y-113029166D02*
X134237200Y-113076785D01*
X134237200Y-113076785D02*
X134284819Y-113219642D01*
X134284819Y-113219642D02*
X134284819Y-113314880D01*
X134284819Y-113314880D02*
X134237200Y-113457737D01*
X134237200Y-113457737D02*
X134141961Y-113552975D01*
X134141961Y-113552975D02*
X134046723Y-113600594D01*
X134046723Y-113600594D02*
X133856247Y-113648213D01*
X133856247Y-113648213D02*
X133713390Y-113648213D01*
X133713390Y-113648213D02*
X133522914Y-113600594D01*
X133522914Y-113600594D02*
X133427676Y-113552975D01*
X133427676Y-113552975D02*
X133332438Y-113457737D01*
X133332438Y-113457737D02*
X133284819Y-113314880D01*
X133284819Y-113314880D02*
X133284819Y-113219642D01*
X133284819Y-113219642D02*
X133332438Y-113076785D01*
X133332438Y-113076785D02*
X133380057Y-113029166D01*
X134284819Y-112076785D02*
X134284819Y-112648213D01*
X134284819Y-112362499D02*
X133284819Y-112362499D01*
X133284819Y-112362499D02*
X133427676Y-112457737D01*
X133427676Y-112457737D02*
X133522914Y-112552975D01*
X133522914Y-112552975D02*
X133570533Y-112648213D01*
X192604819Y-104306666D02*
X192128628Y-104639999D01*
X192604819Y-104878094D02*
X191604819Y-104878094D01*
X191604819Y-104878094D02*
X191604819Y-104497142D01*
X191604819Y-104497142D02*
X191652438Y-104401904D01*
X191652438Y-104401904D02*
X191700057Y-104354285D01*
X191700057Y-104354285D02*
X191795295Y-104306666D01*
X191795295Y-104306666D02*
X191938152Y-104306666D01*
X191938152Y-104306666D02*
X192033390Y-104354285D01*
X192033390Y-104354285D02*
X192081009Y-104401904D01*
X192081009Y-104401904D02*
X192128628Y-104497142D01*
X192128628Y-104497142D02*
X192128628Y-104878094D01*
X191938152Y-103449523D02*
X192604819Y-103449523D01*
X191557200Y-103687618D02*
X192271485Y-103925713D01*
X192271485Y-103925713D02*
X192271485Y-103306666D01*
X158624166Y-74094819D02*
X158624166Y-74809104D01*
X158624166Y-74809104D02*
X158576547Y-74951961D01*
X158576547Y-74951961D02*
X158481309Y-75047200D01*
X158481309Y-75047200D02*
X158338452Y-75094819D01*
X158338452Y-75094819D02*
X158243214Y-75094819D01*
X159624166Y-75094819D02*
X159052738Y-75094819D01*
X159338452Y-75094819D02*
X159338452Y-74094819D01*
X159338452Y-74094819D02*
X159243214Y-74237676D01*
X159243214Y-74237676D02*
X159147976Y-74332914D01*
X159147976Y-74332914D02*
X159052738Y-74380533D01*
X191604819Y-89066666D02*
X191128628Y-89399999D01*
X191604819Y-89638094D02*
X190604819Y-89638094D01*
X190604819Y-89638094D02*
X190604819Y-89257142D01*
X190604819Y-89257142D02*
X190652438Y-89161904D01*
X190652438Y-89161904D02*
X190700057Y-89114285D01*
X190700057Y-89114285D02*
X190795295Y-89066666D01*
X190795295Y-89066666D02*
X190938152Y-89066666D01*
X190938152Y-89066666D02*
X191033390Y-89114285D01*
X191033390Y-89114285D02*
X191081009Y-89161904D01*
X191081009Y-89161904D02*
X191128628Y-89257142D01*
X191128628Y-89257142D02*
X191128628Y-89638094D01*
X190604819Y-88733332D02*
X190604819Y-88114285D01*
X190604819Y-88114285D02*
X190985771Y-88447618D01*
X190985771Y-88447618D02*
X190985771Y-88304761D01*
X190985771Y-88304761D02*
X191033390Y-88209523D01*
X191033390Y-88209523D02*
X191081009Y-88161904D01*
X191081009Y-88161904D02*
X191176247Y-88114285D01*
X191176247Y-88114285D02*
X191414342Y-88114285D01*
X191414342Y-88114285D02*
X191509580Y-88161904D01*
X191509580Y-88161904D02*
X191557200Y-88209523D01*
X191557200Y-88209523D02*
X191604819Y-88304761D01*
X191604819Y-88304761D02*
X191604819Y-88590475D01*
X191604819Y-88590475D02*
X191557200Y-88685713D01*
X191557200Y-88685713D02*
X191509580Y-88733332D01*
X201866666Y-118374819D02*
X201533333Y-117898628D01*
X201295238Y-118374819D02*
X201295238Y-117374819D01*
X201295238Y-117374819D02*
X201676190Y-117374819D01*
X201676190Y-117374819D02*
X201771428Y-117422438D01*
X201771428Y-117422438D02*
X201819047Y-117470057D01*
X201819047Y-117470057D02*
X201866666Y-117565295D01*
X201866666Y-117565295D02*
X201866666Y-117708152D01*
X201866666Y-117708152D02*
X201819047Y-117803390D01*
X201819047Y-117803390D02*
X201771428Y-117851009D01*
X201771428Y-117851009D02*
X201676190Y-117898628D01*
X201676190Y-117898628D02*
X201295238Y-117898628D01*
X202295238Y-117851009D02*
X202628571Y-117851009D01*
X202771428Y-118374819D02*
X202295238Y-118374819D01*
X202295238Y-118374819D02*
X202295238Y-117374819D01*
X202295238Y-117374819D02*
X202771428Y-117374819D01*
X203533333Y-117851009D02*
X203200000Y-117851009D01*
X203200000Y-118374819D02*
X203200000Y-117374819D01*
X203200000Y-117374819D02*
X203676190Y-117374819D01*
X204200000Y-117374819D02*
X204200000Y-117612914D01*
X203961905Y-117517676D02*
X204200000Y-117612914D01*
X204200000Y-117612914D02*
X204438095Y-117517676D01*
X204057143Y-117803390D02*
X204200000Y-117612914D01*
X204200000Y-117612914D02*
X204342857Y-117803390D01*
X204961905Y-117374819D02*
X204961905Y-117612914D01*
X204723810Y-117517676D02*
X204961905Y-117612914D01*
X204961905Y-117612914D02*
X205200000Y-117517676D01*
X204819048Y-117803390D02*
X204961905Y-117612914D01*
X204961905Y-117612914D02*
X205104762Y-117803390D01*
X118046666Y-70114819D02*
X117713333Y-69638628D01*
X117475238Y-70114819D02*
X117475238Y-69114819D01*
X117475238Y-69114819D02*
X117856190Y-69114819D01*
X117856190Y-69114819D02*
X117951428Y-69162438D01*
X117951428Y-69162438D02*
X117999047Y-69210057D01*
X117999047Y-69210057D02*
X118046666Y-69305295D01*
X118046666Y-69305295D02*
X118046666Y-69448152D01*
X118046666Y-69448152D02*
X117999047Y-69543390D01*
X117999047Y-69543390D02*
X117951428Y-69591009D01*
X117951428Y-69591009D02*
X117856190Y-69638628D01*
X117856190Y-69638628D02*
X117475238Y-69638628D01*
X118475238Y-69591009D02*
X118808571Y-69591009D01*
X118951428Y-70114819D02*
X118475238Y-70114819D01*
X118475238Y-70114819D02*
X118475238Y-69114819D01*
X118475238Y-69114819D02*
X118951428Y-69114819D01*
X119713333Y-69591009D02*
X119380000Y-69591009D01*
X119380000Y-70114819D02*
X119380000Y-69114819D01*
X119380000Y-69114819D02*
X119856190Y-69114819D01*
X120380000Y-69114819D02*
X120380000Y-69352914D01*
X120141905Y-69257676D02*
X120380000Y-69352914D01*
X120380000Y-69352914D02*
X120618095Y-69257676D01*
X120237143Y-69543390D02*
X120380000Y-69352914D01*
X120380000Y-69352914D02*
X120522857Y-69543390D01*
X121141905Y-69114819D02*
X121141905Y-69352914D01*
X120903810Y-69257676D02*
X121141905Y-69352914D01*
X121141905Y-69352914D02*
X121380000Y-69257676D01*
X120999048Y-69543390D02*
X121141905Y-69352914D01*
X121141905Y-69352914D02*
X121284762Y-69543390D01*
X201866666Y-70114819D02*
X201533333Y-69638628D01*
X201295238Y-70114819D02*
X201295238Y-69114819D01*
X201295238Y-69114819D02*
X201676190Y-69114819D01*
X201676190Y-69114819D02*
X201771428Y-69162438D01*
X201771428Y-69162438D02*
X201819047Y-69210057D01*
X201819047Y-69210057D02*
X201866666Y-69305295D01*
X201866666Y-69305295D02*
X201866666Y-69448152D01*
X201866666Y-69448152D02*
X201819047Y-69543390D01*
X201819047Y-69543390D02*
X201771428Y-69591009D01*
X201771428Y-69591009D02*
X201676190Y-69638628D01*
X201676190Y-69638628D02*
X201295238Y-69638628D01*
X202295238Y-69591009D02*
X202628571Y-69591009D01*
X202771428Y-70114819D02*
X202295238Y-70114819D01*
X202295238Y-70114819D02*
X202295238Y-69114819D01*
X202295238Y-69114819D02*
X202771428Y-69114819D01*
X203533333Y-69591009D02*
X203200000Y-69591009D01*
X203200000Y-70114819D02*
X203200000Y-69114819D01*
X203200000Y-69114819D02*
X203676190Y-69114819D01*
X204200000Y-69114819D02*
X204200000Y-69352914D01*
X203961905Y-69257676D02*
X204200000Y-69352914D01*
X204200000Y-69352914D02*
X204438095Y-69257676D01*
X204057143Y-69543390D02*
X204200000Y-69352914D01*
X204200000Y-69352914D02*
X204342857Y-69543390D01*
X204961905Y-69114819D02*
X204961905Y-69352914D01*
X204723810Y-69257676D02*
X204961905Y-69352914D01*
X204961905Y-69352914D02*
X205200000Y-69257676D01*
X204819048Y-69543390D02*
X204961905Y-69352914D01*
X204961905Y-69352914D02*
X205104762Y-69543390D01*
X118046666Y-118374819D02*
X117713333Y-117898628D01*
X117475238Y-118374819D02*
X117475238Y-117374819D01*
X117475238Y-117374819D02*
X117856190Y-117374819D01*
X117856190Y-117374819D02*
X117951428Y-117422438D01*
X117951428Y-117422438D02*
X117999047Y-117470057D01*
X117999047Y-117470057D02*
X118046666Y-117565295D01*
X118046666Y-117565295D02*
X118046666Y-117708152D01*
X118046666Y-117708152D02*
X117999047Y-117803390D01*
X117999047Y-117803390D02*
X117951428Y-117851009D01*
X117951428Y-117851009D02*
X117856190Y-117898628D01*
X117856190Y-117898628D02*
X117475238Y-117898628D01*
X118475238Y-117851009D02*
X118808571Y-117851009D01*
X118951428Y-118374819D02*
X118475238Y-118374819D01*
X118475238Y-118374819D02*
X118475238Y-117374819D01*
X118475238Y-117374819D02*
X118951428Y-117374819D01*
X119713333Y-117851009D02*
X119380000Y-117851009D01*
X119380000Y-118374819D02*
X119380000Y-117374819D01*
X119380000Y-117374819D02*
X119856190Y-117374819D01*
X120380000Y-117374819D02*
X120380000Y-117612914D01*
X120141905Y-117517676D02*
X120380000Y-117612914D01*
X120380000Y-117612914D02*
X120618095Y-117517676D01*
X120237143Y-117803390D02*
X120380000Y-117612914D01*
X120380000Y-117612914D02*
X120522857Y-117803390D01*
X121141905Y-117374819D02*
X121141905Y-117612914D01*
X120903810Y-117517676D02*
X121141905Y-117612914D01*
X121141905Y-117612914D02*
X121380000Y-117517676D01*
X120999048Y-117803390D02*
X121141905Y-117612914D01*
X121141905Y-117612914D02*
X121284762Y-117803390D01*
X186594819Y-79478094D02*
X185594819Y-79478094D01*
X185594819Y-79478094D02*
X185594819Y-79239999D01*
X185594819Y-79239999D02*
X185642438Y-79097142D01*
X185642438Y-79097142D02*
X185737676Y-79001904D01*
X185737676Y-79001904D02*
X185832914Y-78954285D01*
X185832914Y-78954285D02*
X186023390Y-78906666D01*
X186023390Y-78906666D02*
X186166247Y-78906666D01*
X186166247Y-78906666D02*
X186356723Y-78954285D01*
X186356723Y-78954285D02*
X186451961Y-79001904D01*
X186451961Y-79001904D02*
X186547200Y-79097142D01*
X186547200Y-79097142D02*
X186594819Y-79239999D01*
X186594819Y-79239999D02*
X186594819Y-79478094D01*
X186594819Y-77954285D02*
X186594819Y-78525713D01*
X186594819Y-78239999D02*
X185594819Y-78239999D01*
X185594819Y-78239999D02*
X185737676Y-78335237D01*
X185737676Y-78335237D02*
X185832914Y-78430475D01*
X185832914Y-78430475D02*
X185880533Y-78525713D01*
X180027319Y-120118094D02*
X179027319Y-120118094D01*
X179027319Y-120118094D02*
X179027319Y-119879999D01*
X179027319Y-119879999D02*
X179074938Y-119737142D01*
X179074938Y-119737142D02*
X179170176Y-119641904D01*
X179170176Y-119641904D02*
X179265414Y-119594285D01*
X179265414Y-119594285D02*
X179455890Y-119546666D01*
X179455890Y-119546666D02*
X179598747Y-119546666D01*
X179598747Y-119546666D02*
X179789223Y-119594285D01*
X179789223Y-119594285D02*
X179884461Y-119641904D01*
X179884461Y-119641904D02*
X179979700Y-119737142D01*
X179979700Y-119737142D02*
X180027319Y-119879999D01*
X180027319Y-119879999D02*
X180027319Y-120118094D01*
X179122557Y-119165713D02*
X179074938Y-119118094D01*
X179074938Y-119118094D02*
X179027319Y-119022856D01*
X179027319Y-119022856D02*
X179027319Y-118784761D01*
X179027319Y-118784761D02*
X179074938Y-118689523D01*
X179074938Y-118689523D02*
X179122557Y-118641904D01*
X179122557Y-118641904D02*
X179217795Y-118594285D01*
X179217795Y-118594285D02*
X179313033Y-118594285D01*
X179313033Y-118594285D02*
X179455890Y-118641904D01*
X179455890Y-118641904D02*
X180027319Y-119213332D01*
X180027319Y-119213332D02*
X180027319Y-118594285D01*
X134559819Y-93521666D02*
X134083628Y-93854999D01*
X134559819Y-94093094D02*
X133559819Y-94093094D01*
X133559819Y-94093094D02*
X133559819Y-93712142D01*
X133559819Y-93712142D02*
X133607438Y-93616904D01*
X133607438Y-93616904D02*
X133655057Y-93569285D01*
X133655057Y-93569285D02*
X133750295Y-93521666D01*
X133750295Y-93521666D02*
X133893152Y-93521666D01*
X133893152Y-93521666D02*
X133988390Y-93569285D01*
X133988390Y-93569285D02*
X134036009Y-93616904D01*
X134036009Y-93616904D02*
X134083628Y-93712142D01*
X134083628Y-93712142D02*
X134083628Y-94093094D01*
X133655057Y-93140713D02*
X133607438Y-93093094D01*
X133607438Y-93093094D02*
X133559819Y-92997856D01*
X133559819Y-92997856D02*
X133559819Y-92759761D01*
X133559819Y-92759761D02*
X133607438Y-92664523D01*
X133607438Y-92664523D02*
X133655057Y-92616904D01*
X133655057Y-92616904D02*
X133750295Y-92569285D01*
X133750295Y-92569285D02*
X133845533Y-92569285D01*
X133845533Y-92569285D02*
X133988390Y-92616904D01*
X133988390Y-92616904D02*
X134559819Y-93188332D01*
X134559819Y-93188332D02*
X134559819Y-92569285D01*
X173939580Y-95184166D02*
X173987200Y-95231785D01*
X173987200Y-95231785D02*
X174034819Y-95374642D01*
X174034819Y-95374642D02*
X174034819Y-95469880D01*
X174034819Y-95469880D02*
X173987200Y-95612737D01*
X173987200Y-95612737D02*
X173891961Y-95707975D01*
X173891961Y-95707975D02*
X173796723Y-95755594D01*
X173796723Y-95755594D02*
X173606247Y-95803213D01*
X173606247Y-95803213D02*
X173463390Y-95803213D01*
X173463390Y-95803213D02*
X173272914Y-95755594D01*
X173272914Y-95755594D02*
X173177676Y-95707975D01*
X173177676Y-95707975D02*
X173082438Y-95612737D01*
X173082438Y-95612737D02*
X173034819Y-95469880D01*
X173034819Y-95469880D02*
X173034819Y-95374642D01*
X173034819Y-95374642D02*
X173082438Y-95231785D01*
X173082438Y-95231785D02*
X173130057Y-95184166D01*
X173130057Y-94803213D02*
X173082438Y-94755594D01*
X173082438Y-94755594D02*
X173034819Y-94660356D01*
X173034819Y-94660356D02*
X173034819Y-94422261D01*
X173034819Y-94422261D02*
X173082438Y-94327023D01*
X173082438Y-94327023D02*
X173130057Y-94279404D01*
X173130057Y-94279404D02*
X173225295Y-94231785D01*
X173225295Y-94231785D02*
X173320533Y-94231785D01*
X173320533Y-94231785D02*
X173463390Y-94279404D01*
X173463390Y-94279404D02*
X174034819Y-94850832D01*
X174034819Y-94850832D02*
X174034819Y-94231785D01*
X134184819Y-83986666D02*
X133708628Y-84319999D01*
X134184819Y-84558094D02*
X133184819Y-84558094D01*
X133184819Y-84558094D02*
X133184819Y-84177142D01*
X133184819Y-84177142D02*
X133232438Y-84081904D01*
X133232438Y-84081904D02*
X133280057Y-84034285D01*
X133280057Y-84034285D02*
X133375295Y-83986666D01*
X133375295Y-83986666D02*
X133518152Y-83986666D01*
X133518152Y-83986666D02*
X133613390Y-84034285D01*
X133613390Y-84034285D02*
X133661009Y-84081904D01*
X133661009Y-84081904D02*
X133708628Y-84177142D01*
X133708628Y-84177142D02*
X133708628Y-84558094D01*
X134184819Y-83034285D02*
X134184819Y-83605713D01*
X134184819Y-83319999D02*
X133184819Y-83319999D01*
X133184819Y-83319999D02*
X133327676Y-83415237D01*
X133327676Y-83415237D02*
X133422914Y-83510475D01*
X133422914Y-83510475D02*
X133470533Y-83605713D01*
D11*
%TO.C,U1*%
X159450000Y-107410000D02*
X156000000Y-107410000D01*
X159450000Y-107410000D02*
X161400000Y-107410000D01*
X159450000Y-112530000D02*
X157500000Y-112530000D01*
X159450000Y-112530000D02*
X161400000Y-112530000D01*
%TO.C,C1*%
X133015000Y-110377500D02*
X131145000Y-110377500D01*
X131145000Y-110377500D02*
X131145000Y-114462500D01*
X133015000Y-114462500D02*
X133015000Y-110377500D01*
%TO.C,R4*%
X191235000Y-103912936D02*
X191235000Y-104367064D01*
X189765000Y-103912936D02*
X189765000Y-104367064D01*
%TO.C,J1*%
X155097500Y-75730000D02*
X162817500Y-75730000D01*
X155097500Y-76950000D02*
X156317500Y-76950000D01*
X155097500Y-84150000D02*
X155097500Y-75730000D01*
X156317500Y-76950000D02*
X156317500Y-81950000D01*
X156317500Y-80950000D02*
X161597500Y-80950000D01*
X156317500Y-81950000D02*
X155097500Y-81950000D01*
X156317500Y-81950000D02*
X156317500Y-84150000D01*
X156317500Y-84150000D02*
X155097500Y-84150000D01*
X157387500Y-77530000D02*
X157707500Y-77450000D01*
X157387500Y-80950000D02*
X157387500Y-77530000D01*
X157407500Y-84640000D02*
X158007500Y-84640000D01*
X157707500Y-77450000D02*
X158027500Y-77530000D01*
X157707500Y-80950000D02*
X157387500Y-80950000D01*
X157707500Y-84040000D02*
X157407500Y-84640000D01*
X158007500Y-84640000D02*
X157707500Y-84040000D01*
X158027500Y-77530000D02*
X158027500Y-80950000D01*
X158027500Y-80950000D02*
X157707500Y-80950000D01*
X158877500Y-81950000D02*
X159037500Y-81950000D01*
X159887500Y-77530000D02*
X160207500Y-77450000D01*
X159887500Y-80950000D02*
X159887500Y-77530000D01*
X160207500Y-77450000D02*
X160527500Y-77530000D01*
X160207500Y-80950000D02*
X159887500Y-80950000D01*
X160527500Y-77530000D02*
X160527500Y-80950000D01*
X160527500Y-80950000D02*
X160207500Y-80950000D01*
X161597500Y-76950000D02*
X161597500Y-81950000D01*
X161597500Y-81950000D02*
X162817500Y-81950000D01*
X161597500Y-84150000D02*
X161597500Y-81950000D01*
X162817500Y-75730000D02*
X162817500Y-84150000D01*
X162817500Y-76950000D02*
X161597500Y-76950000D01*
X162817500Y-84150000D02*
X161597500Y-84150000D01*
%TO.C,R3*%
X190235000Y-88672936D02*
X190235000Y-89127064D01*
X188765000Y-88672936D02*
X188765000Y-89127064D01*
%TO.C,D1*%
X186825000Y-81200000D02*
X189095000Y-81200000D01*
X189095000Y-81200000D02*
X189095000Y-77140000D01*
X186825000Y-77140000D02*
X186825000Y-81200000D01*
%TO.C,D2*%
X180257500Y-121840000D02*
X182527500Y-121840000D01*
X182527500Y-121840000D02*
X182527500Y-117780000D01*
X180257500Y-117780000D02*
X180257500Y-121840000D01*
%TO.C,R2*%
X133190000Y-93127936D02*
X133190000Y-93582064D01*
X131720000Y-93127936D02*
X131720000Y-93582064D01*
%TO.C,C2*%
X174525000Y-95278752D02*
X174525000Y-94756248D01*
X175995000Y-95278752D02*
X175995000Y-94756248D01*
%TO.C,R1*%
X132815000Y-83592936D02*
X132815000Y-84047064D01*
X131345000Y-83592936D02*
X131345000Y-84047064D01*
%TD*%
M02*
