%TF.GenerationSoftware,KiCad,Pcbnew,7.0.8*%
%TF.CreationDate,2023-10-17T13:28:15-07:00*%
%TF.ProjectId,Lab2Main,4c616232-4d61-4696-9e2e-6b696361645f,rev?*%
%TF.SameCoordinates,Original*%
%TF.FileFunction,Copper,L1,Top*%
%TF.FilePolarity,Positive*%
%FSLAX46Y46*%
G04 Gerber Fmt 4.6, Leading zero omitted, Abs format (unit mm)*
G04 Created by KiCad (PCBNEW 7.0.8) date 2023-10-17 13:28:15*
%MOMM*%
%LPD*%
G01*
G04 APERTURE LIST*
G04 Aperture macros list*
%AMRoundRect*
0 Rectangle with rounded corners*
0 $1 Rounding radius*
0 $2 $3 $4 $5 $6 $7 $8 $9 X,Y pos of 4 corners*
0 Add a 4 corners polygon primitive as box body*
4,1,4,$2,$3,$4,$5,$6,$7,$8,$9,$2,$3,0*
0 Add four circle primitives for the rounded corners*
1,1,$1+$1,$2,$3*
1,1,$1+$1,$4,$5*
1,1,$1+$1,$6,$7*
1,1,$1+$1,$8,$9*
0 Add four rect primitives between the rounded corners*
20,1,$1+$1,$2,$3,$4,$5,0*
20,1,$1+$1,$4,$5,$6,$7,0*
20,1,$1+$1,$6,$7,$8,$9,0*
20,1,$1+$1,$8,$9,$2,$3,0*%
G04 Aperture macros list end*
%TA.AperFunction,SMDPad,CuDef*%
%ADD10RoundRect,0.150000X-0.825000X-0.150000X0.825000X-0.150000X0.825000X0.150000X-0.825000X0.150000X0*%
%TD*%
%TA.AperFunction,SMDPad,CuDef*%
%ADD11R,2.290000X3.000000*%
%TD*%
%TA.AperFunction,SMDPad,CuDef*%
%ADD12RoundRect,0.250000X-0.425000X0.537500X-0.425000X-0.537500X0.425000X-0.537500X0.425000X0.537500X0*%
%TD*%
%TA.AperFunction,SMDPad,CuDef*%
%ADD13RoundRect,0.250000X-0.450000X0.350000X-0.450000X-0.350000X0.450000X-0.350000X0.450000X0.350000X0*%
%TD*%
%TA.AperFunction,ComponentPad*%
%ADD14RoundRect,0.250000X-0.600000X-0.750000X0.600000X-0.750000X0.600000X0.750000X-0.600000X0.750000X0*%
%TD*%
%TA.AperFunction,ComponentPad*%
%ADD15O,1.700000X2.000000*%
%TD*%
%TA.AperFunction,SMDPad,CuDef*%
%ADD16RoundRect,0.250001X0.624999X-0.462499X0.624999X0.462499X-0.624999X0.462499X-0.624999X-0.462499X0*%
%TD*%
%TA.AperFunction,SMDPad,CuDef*%
%ADD17RoundRect,0.250000X0.475000X-0.337500X0.475000X0.337500X-0.475000X0.337500X-0.475000X-0.337500X0*%
%TD*%
%TA.AperFunction,ViaPad*%
%ADD18C,0.800000*%
%TD*%
%TA.AperFunction,Conductor*%
%ADD19C,0.254000*%
%TD*%
%TA.AperFunction,Conductor*%
%ADD20C,0.508000*%
%TD*%
G04 APERTURE END LIST*
D10*
%TO.P,U1,1,GND*%
%TO.N,GND*%
X156975000Y-108065000D03*
%TO.P,U1,2,TR*%
%TO.N,/pin_2*%
X156975000Y-109335000D03*
%TO.P,U1,3,Q*%
%TO.N,/pin_3*%
X156975000Y-110605000D03*
%TO.P,U1,4,R*%
%TO.N,+9V*%
X156975000Y-111875000D03*
%TO.P,U1,5,CV*%
%TO.N,Net-(U1-CV)*%
X161925000Y-111875000D03*
%TO.P,U1,6,THR*%
%TO.N,/pin_2*%
X161925000Y-110605000D03*
%TO.P,U1,7,DIS*%
%TO.N,/pin_7*%
X161925000Y-109335000D03*
%TO.P,U1,8,VCC*%
%TO.N,+9V*%
X161925000Y-108065000D03*
D11*
%TO.P,U1,9*%
%TO.N,N/C*%
X159450000Y-109970000D03*
%TD*%
D12*
%TO.P,C1,1*%
%TO.N,/pin_2*%
X132080000Y-111425000D03*
%TO.P,C1,2*%
%TO.N,GND*%
X132080000Y-114300000D03*
%TD*%
D13*
%TO.P,R4,1*%
%TO.N,/pin_3*%
X190500000Y-103140000D03*
%TO.P,R4,2*%
%TO.N,Net-(D2-A)*%
X190500000Y-105140000D03*
%TD*%
D14*
%TO.P,J1,1,Pin_1*%
%TO.N,+9V*%
X157707500Y-82540000D03*
D15*
%TO.P,J1,2,Pin_2*%
%TO.N,GND*%
X160207500Y-82540000D03*
%TD*%
D13*
%TO.P,R3,1*%
%TO.N,Net-(D1-K)*%
X189500000Y-87900000D03*
%TO.P,R3,2*%
%TO.N,/pin_3*%
X189500000Y-89900000D03*
%TD*%
D16*
%TO.P,D1,1,K*%
%TO.N,Net-(D1-K)*%
X187960000Y-80227500D03*
%TO.P,D1,2,A*%
%TO.N,+9V*%
X187960000Y-77252500D03*
%TD*%
%TO.P,D2,1,K*%
%TO.N,GND*%
X181392500Y-120867500D03*
%TO.P,D2,2,A*%
%TO.N,Net-(D2-A)*%
X181392500Y-117892500D03*
%TD*%
D13*
%TO.P,R2,1*%
%TO.N,/pin_7*%
X132455000Y-92355000D03*
%TO.P,R2,2*%
%TO.N,/pin_2*%
X132455000Y-94355000D03*
%TD*%
D17*
%TO.P,C2,1*%
%TO.N,Net-(U1-CV)*%
X175260000Y-96055000D03*
%TO.P,C2,2*%
%TO.N,GND*%
X175260000Y-93980000D03*
%TD*%
D13*
%TO.P,R1,1*%
%TO.N,+9V*%
X132080000Y-82820000D03*
%TO.P,R1,2*%
%TO.N,/pin_7*%
X132080000Y-84820000D03*
%TD*%
D18*
%TO.N,/pin_2*%
X165100000Y-106680000D03*
X170180000Y-111760000D03*
%TO.N,GND*%
X167640000Y-99060000D03*
X147320000Y-101600000D03*
%TO.N,+9V*%
X147320000Y-106680000D03*
X154940000Y-111760000D03*
%TO.N,/pin_7*%
X162560000Y-93980000D03*
X154940000Y-93980000D03*
%TO.N,/pin_3*%
X147320000Y-111760000D03*
X144780000Y-111760000D03*
%TD*%
D19*
%TO.N,/pin_2*%
X132455000Y-94355000D02*
X132455000Y-107170000D01*
X162900000Y-110605000D02*
X161925000Y-110605000D01*
X145081134Y-111033000D02*
X145507000Y-111458866D01*
X132080000Y-111425000D02*
X134170000Y-109335000D01*
X143009866Y-112502000D02*
X144478866Y-111033000D01*
X144478866Y-111033000D02*
X145081134Y-111033000D01*
X165100000Y-106680000D02*
X165100000Y-108405000D01*
X132455000Y-107170000D02*
X134620000Y-109335000D01*
X169438000Y-112502000D02*
X170180000Y-111760000D01*
X149745000Y-109335000D02*
X149860000Y-109220000D01*
X165100000Y-108405000D02*
X162900000Y-110605000D01*
X146164052Y-112502000D02*
X169438000Y-112502000D01*
X145507000Y-111458866D02*
X145507000Y-111844948D01*
X145507000Y-111844948D02*
X146164052Y-112502000D01*
X156975000Y-109335000D02*
X127115000Y-109335000D01*
X134620000Y-109335000D02*
X149745000Y-109335000D01*
X130282000Y-112502000D02*
X143009866Y-112502000D01*
X127115000Y-109335000D02*
X130282000Y-112502000D01*
X134170000Y-109335000D02*
X134620000Y-109335000D01*
%TO.N,GND*%
X147676866Y-108065000D02*
X146593000Y-106981134D01*
X146593000Y-106981134D02*
X146593000Y-102327000D01*
X156975000Y-108065000D02*
X147676866Y-108065000D01*
X146593000Y-102327000D02*
X147320000Y-101600000D01*
%TO.N,Net-(U1-CV)*%
X162900000Y-111875000D02*
X161925000Y-111875000D01*
X175260000Y-99515000D02*
X162900000Y-111875000D01*
X175260000Y-96055000D02*
X175260000Y-99515000D01*
%TO.N,Net-(D1-K)*%
X187960000Y-86360000D02*
X189500000Y-87900000D01*
X187960000Y-80227500D02*
X187960000Y-86360000D01*
D20*
%TO.N,+9V*%
X157427500Y-82820000D02*
X157707500Y-82540000D01*
X154940000Y-111760000D02*
X156860000Y-111760000D01*
X147951000Y-107311000D02*
X147320000Y-106680000D01*
X187960000Y-77252500D02*
X162995000Y-77252500D01*
X153941739Y-91774000D02*
X155794000Y-93626261D01*
X155794000Y-93626261D02*
X155794000Y-94333739D01*
X155794000Y-94333739D02*
X155293739Y-94834000D01*
X132080000Y-82820000D02*
X157427500Y-82820000D01*
X162995000Y-77252500D02*
X157707500Y-82540000D01*
X148694000Y-94834000D02*
X161925000Y-108065000D01*
X161171000Y-107311000D02*
X147951000Y-107311000D01*
X148473500Y-91774000D02*
X153941739Y-91774000D01*
X155293739Y-94834000D02*
X148694000Y-94834000D01*
X161925000Y-108065000D02*
X161171000Y-107311000D01*
X156860000Y-111760000D02*
X156975000Y-111875000D01*
X157707500Y-82540000D02*
X148473500Y-91774000D01*
D19*
%TO.N,Net-(D2-A)*%
X181392500Y-114247500D02*
X190500000Y-105140000D01*
X181392500Y-117892500D02*
X181392500Y-114247500D01*
%TO.N,/pin_7*%
X163227000Y-94647000D02*
X163227000Y-108553000D01*
X132455000Y-92355000D02*
X153315000Y-92355000D01*
X153315000Y-92355000D02*
X154940000Y-93980000D01*
X162445000Y-109335000D02*
X161925000Y-109335000D01*
X132080000Y-91980000D02*
X132455000Y-92355000D01*
X163227000Y-108553000D02*
X162445000Y-109335000D01*
X132080000Y-84820000D02*
X132080000Y-91980000D01*
X162560000Y-93980000D02*
X163227000Y-94647000D01*
%TO.N,/pin_3*%
X190500000Y-103140000D02*
X180684000Y-112956000D01*
X190500000Y-103140000D02*
X190500000Y-90900000D01*
X190500000Y-90900000D02*
X189500000Y-89900000D01*
X147320000Y-111760000D02*
X148475000Y-110605000D01*
X180684000Y-112956000D02*
X145976000Y-112956000D01*
X148475000Y-110605000D02*
X156975000Y-110605000D01*
X145976000Y-112956000D02*
X144780000Y-111760000D01*
%TD*%
%TA.AperFunction,Conductor*%
%TO.N,GND*%
G36*
X153070758Y-93002185D02*
G01*
X153091400Y-93018819D01*
X153940400Y-93867819D01*
X153973885Y-93929142D01*
X153968901Y-93998834D01*
X153927029Y-94054767D01*
X153861565Y-94079184D01*
X153852719Y-94079500D01*
X148783753Y-94079500D01*
X148767405Y-94077829D01*
X148767401Y-94077883D01*
X148760210Y-94077253D01*
X148683018Y-94079500D01*
X148650059Y-94079500D01*
X148650053Y-94079500D01*
X148650046Y-94079501D01*
X148641806Y-94080463D01*
X148636421Y-94080855D01*
X148583906Y-94082383D01*
X148583903Y-94082384D01*
X148560532Y-94088646D01*
X148542840Y-94092031D01*
X148518817Y-94094839D01*
X148518813Y-94094840D01*
X148469452Y-94112806D01*
X148464293Y-94114433D01*
X148413537Y-94128034D01*
X148413535Y-94128034D01*
X148392247Y-94139513D01*
X148375812Y-94146888D01*
X148353074Y-94155164D01*
X148309180Y-94184034D01*
X148304535Y-94186806D01*
X148258293Y-94211741D01*
X148258289Y-94211744D01*
X148240221Y-94227823D01*
X148225931Y-94238788D01*
X148205718Y-94252083D01*
X148205712Y-94252087D01*
X148169651Y-94290306D01*
X148165774Y-94294072D01*
X148126534Y-94328995D01*
X148126533Y-94328996D01*
X148112656Y-94348814D01*
X148101282Y-94362776D01*
X148084679Y-94380374D01*
X148084676Y-94380378D01*
X148058405Y-94425881D01*
X148055499Y-94430442D01*
X148025366Y-94473479D01*
X148016437Y-94495955D01*
X148008587Y-94512170D01*
X147996492Y-94533119D01*
X147996491Y-94533120D01*
X147981418Y-94583463D01*
X147979642Y-94588571D01*
X147960247Y-94637393D01*
X147960246Y-94637397D01*
X147956740Y-94661332D01*
X147952842Y-94678917D01*
X147945905Y-94702088D01*
X147945904Y-94702095D01*
X147942849Y-94754534D01*
X147942299Y-94759913D01*
X147934684Y-94811907D01*
X147934684Y-94811911D01*
X147936792Y-94836008D01*
X147937055Y-94854016D01*
X147935649Y-94878171D01*
X147944770Y-94929901D01*
X147945476Y-94935265D01*
X147950056Y-94987608D01*
X147950057Y-94987615D01*
X147957667Y-95010581D01*
X147962076Y-95028045D01*
X147966276Y-95051866D01*
X147978169Y-95079437D01*
X147987089Y-95100116D01*
X147989008Y-95105159D01*
X148005535Y-95155035D01*
X148005536Y-95155036D01*
X148018236Y-95175625D01*
X148026553Y-95191603D01*
X148036136Y-95213819D01*
X148067508Y-95255960D01*
X148070546Y-95260436D01*
X148098130Y-95305154D01*
X148115232Y-95322256D01*
X148127016Y-95335891D01*
X148141461Y-95355294D01*
X148181706Y-95389064D01*
X148185696Y-95392720D01*
X159137795Y-106344819D01*
X159171280Y-106406142D01*
X159166296Y-106475834D01*
X159124424Y-106531767D01*
X159058960Y-106556184D01*
X159050114Y-106556500D01*
X148316806Y-106556500D01*
X148249767Y-106536815D01*
X148204012Y-106484011D01*
X148198875Y-106470818D01*
X148147181Y-106311722D01*
X148147180Y-106311721D01*
X148147179Y-106311716D01*
X148052533Y-106147784D01*
X147925871Y-106007112D01*
X147925870Y-106007111D01*
X147772734Y-105895851D01*
X147772729Y-105895848D01*
X147599807Y-105818857D01*
X147599802Y-105818855D01*
X147454001Y-105787865D01*
X147414646Y-105779500D01*
X147225354Y-105779500D01*
X147192897Y-105786398D01*
X147040197Y-105818855D01*
X147040192Y-105818857D01*
X146867270Y-105895848D01*
X146867265Y-105895851D01*
X146714129Y-106007111D01*
X146587466Y-106147785D01*
X146492821Y-106311715D01*
X146492818Y-106311722D01*
X146434327Y-106491740D01*
X146434326Y-106491744D01*
X146414540Y-106680000D01*
X146434326Y-106868256D01*
X146434327Y-106868259D01*
X146492818Y-107048277D01*
X146492821Y-107048284D01*
X146587467Y-107212216D01*
X146714129Y-107352888D01*
X146867265Y-107464148D01*
X146867270Y-107464151D01*
X147040191Y-107541142D01*
X147040193Y-107541142D01*
X147040197Y-107541144D01*
X147098148Y-107553461D01*
X147159627Y-107586653D01*
X147160046Y-107587070D01*
X147372234Y-107799258D01*
X147384015Y-107812890D01*
X147398461Y-107832294D01*
X147438715Y-107866071D01*
X147442687Y-107869711D01*
X147448559Y-107875583D01*
X147474415Y-107896027D01*
X147533572Y-107945667D01*
X147539609Y-107949637D01*
X147539579Y-107949682D01*
X147546038Y-107953796D01*
X147546067Y-107953750D01*
X147552206Y-107957537D01*
X147552209Y-107957539D01*
X147622191Y-107990172D01*
X147691189Y-108024824D01*
X147691194Y-108024825D01*
X147697979Y-108027295D01*
X147697960Y-108027347D01*
X147705185Y-108029858D01*
X147705203Y-108029807D01*
X147712062Y-108032080D01*
X147744219Y-108038719D01*
X147787689Y-108047695D01*
X147862812Y-108065500D01*
X147862815Y-108065500D01*
X147869986Y-108066339D01*
X147869979Y-108066392D01*
X147877594Y-108067170D01*
X147877599Y-108067117D01*
X147884789Y-108067746D01*
X147884793Y-108067745D01*
X147884794Y-108067746D01*
X147961982Y-108065500D01*
X155376000Y-108065500D01*
X155443039Y-108085185D01*
X155488794Y-108137989D01*
X155500000Y-108189500D01*
X155500000Y-108280644D01*
X155502899Y-108317489D01*
X155502900Y-108317495D01*
X155548716Y-108475193D01*
X155548717Y-108475196D01*
X155575438Y-108520379D01*
X155592621Y-108588103D01*
X155570461Y-108654366D01*
X155515995Y-108698129D01*
X155468706Y-108707500D01*
X150266119Y-108707500D01*
X150209826Y-108693985D01*
X150074247Y-108624905D01*
X150074245Y-108624904D01*
X150074244Y-108624904D01*
X150023275Y-108613511D01*
X149919523Y-108590320D01*
X149919520Y-108590320D01*
X149761056Y-108595299D01*
X149608813Y-108639529D01*
X149608808Y-108639531D01*
X149555292Y-108671181D01*
X149527166Y-108687815D01*
X149523079Y-108690232D01*
X149459958Y-108707500D01*
X134931281Y-108707500D01*
X134864242Y-108687815D01*
X134843600Y-108671181D01*
X133118819Y-106946400D01*
X133085334Y-106885077D01*
X133082500Y-106858719D01*
X133082500Y-95526353D01*
X133102185Y-95459314D01*
X133154989Y-95413559D01*
X133167482Y-95408652D01*
X133224334Y-95389814D01*
X133373656Y-95297712D01*
X133497712Y-95173656D01*
X133589814Y-95024334D01*
X133644999Y-94857797D01*
X133655500Y-94755009D01*
X133655499Y-93954992D01*
X133652858Y-93929142D01*
X133644999Y-93852203D01*
X133644998Y-93852200D01*
X133624965Y-93791744D01*
X133589814Y-93685666D01*
X133497712Y-93536344D01*
X133404049Y-93442681D01*
X133370564Y-93381358D01*
X133375548Y-93311666D01*
X133404049Y-93267319D01*
X133450553Y-93220815D01*
X133497712Y-93173656D01*
X133579285Y-93041403D01*
X133631233Y-92994679D01*
X133684824Y-92982500D01*
X153003719Y-92982500D01*
X153070758Y-93002185D01*
G37*
%TD.AperFunction*%
%TA.AperFunction,Conductor*%
G36*
X200603039Y-73679685D02*
G01*
X200648794Y-73732489D01*
X200660000Y-73784000D01*
X200660000Y-124336000D01*
X200640315Y-124403039D01*
X200587511Y-124448794D01*
X200536000Y-124460000D01*
X124584000Y-124460000D01*
X124516961Y-124440315D01*
X124471206Y-124387511D01*
X124460000Y-124336000D01*
X124460000Y-121117500D01*
X180017500Y-121117500D01*
X180017500Y-121379985D01*
X180027993Y-121482689D01*
X180027994Y-121482696D01*
X180083141Y-121649118D01*
X180083143Y-121649123D01*
X180175184Y-121798344D01*
X180299155Y-121922315D01*
X180448376Y-122014356D01*
X180448381Y-122014358D01*
X180614803Y-122069505D01*
X180614810Y-122069506D01*
X180717514Y-122079999D01*
X180717527Y-122080000D01*
X181142500Y-122080000D01*
X181142500Y-121117500D01*
X181642500Y-121117500D01*
X181642500Y-122080000D01*
X182067473Y-122080000D01*
X182067485Y-122079999D01*
X182170189Y-122069506D01*
X182170196Y-122069505D01*
X182336618Y-122014358D01*
X182336623Y-122014356D01*
X182485844Y-121922315D01*
X182609815Y-121798344D01*
X182701856Y-121649123D01*
X182701858Y-121649118D01*
X182757005Y-121482696D01*
X182757006Y-121482689D01*
X182767499Y-121379985D01*
X182767500Y-121379972D01*
X182767500Y-121117500D01*
X181642500Y-121117500D01*
X181142500Y-121117500D01*
X180017500Y-121117500D01*
X124460000Y-121117500D01*
X124460000Y-120617500D01*
X180017500Y-120617500D01*
X181142500Y-120617500D01*
X181142500Y-119655000D01*
X181642500Y-119655000D01*
X181642500Y-120617500D01*
X182767500Y-120617500D01*
X182767500Y-120355027D01*
X182767499Y-120355014D01*
X182757006Y-120252310D01*
X182757005Y-120252303D01*
X182701858Y-120085881D01*
X182701856Y-120085876D01*
X182609815Y-119936655D01*
X182485844Y-119812684D01*
X182336623Y-119720643D01*
X182336618Y-119720641D01*
X182170196Y-119665494D01*
X182170189Y-119665493D01*
X182067485Y-119655000D01*
X181642500Y-119655000D01*
X181142500Y-119655000D01*
X180717514Y-119655000D01*
X180614810Y-119665493D01*
X180614803Y-119665494D01*
X180448381Y-119720641D01*
X180448376Y-119720643D01*
X180299155Y-119812684D01*
X180175184Y-119936655D01*
X180083143Y-120085876D01*
X180083141Y-120085881D01*
X180027994Y-120252303D01*
X180027993Y-120252310D01*
X180017500Y-120355014D01*
X180017500Y-120617500D01*
X124460000Y-120617500D01*
X124460000Y-114550000D01*
X130905001Y-114550000D01*
X130905001Y-114887486D01*
X130915494Y-114990197D01*
X130970641Y-115156619D01*
X130970643Y-115156624D01*
X131062684Y-115305845D01*
X131186654Y-115429815D01*
X131335875Y-115521856D01*
X131335880Y-115521858D01*
X131502302Y-115577005D01*
X131502309Y-115577006D01*
X131605019Y-115587499D01*
X131829999Y-115587499D01*
X131830000Y-115587498D01*
X131830000Y-114550000D01*
X132330000Y-114550000D01*
X132330000Y-115587499D01*
X132554972Y-115587499D01*
X132554986Y-115587498D01*
X132657697Y-115577005D01*
X132824119Y-115521858D01*
X132824124Y-115521856D01*
X132973345Y-115429815D01*
X133097315Y-115305845D01*
X133189356Y-115156624D01*
X133189358Y-115156619D01*
X133244505Y-114990197D01*
X133244506Y-114990190D01*
X133254999Y-114887486D01*
X133255000Y-114887473D01*
X133255000Y-114550000D01*
X132330000Y-114550000D01*
X131830000Y-114550000D01*
X130905001Y-114550000D01*
X124460000Y-114550000D01*
X124460000Y-109295287D01*
X126483760Y-109295287D01*
X126488118Y-109364549D01*
X126490298Y-109433943D01*
X126491519Y-109441648D01*
X126491242Y-109441691D01*
X126491977Y-109445901D01*
X126492253Y-109445849D01*
X126493715Y-109453511D01*
X126493715Y-109453513D01*
X126493716Y-109453516D01*
X126507820Y-109496927D01*
X126515159Y-109519514D01*
X126534531Y-109586189D01*
X126537628Y-109593345D01*
X126537369Y-109593456D01*
X126539133Y-109597362D01*
X126539388Y-109597243D01*
X126542709Y-109604300D01*
X126579897Y-109662899D01*
X126615237Y-109722656D01*
X126615240Y-109722659D01*
X126620020Y-109728822D01*
X126619796Y-109728995D01*
X126622471Y-109732334D01*
X126622689Y-109732154D01*
X126627657Y-109738159D01*
X126678258Y-109785677D01*
X129779624Y-112887043D01*
X129789471Y-112899333D01*
X129789689Y-112899154D01*
X129794657Y-112905160D01*
X129845257Y-112952677D01*
X129866201Y-112973620D01*
X129866207Y-112973626D01*
X129871697Y-112977883D01*
X129876148Y-112981684D01*
X129910235Y-113013695D01*
X129910237Y-113013696D01*
X129927867Y-113023387D01*
X129944135Y-113034072D01*
X129960038Y-113046408D01*
X129960040Y-113046409D01*
X129960042Y-113046410D01*
X129981380Y-113055643D01*
X130002943Y-113064974D01*
X130008190Y-113067545D01*
X130016703Y-113072225D01*
X130049166Y-113090072D01*
X130068667Y-113095079D01*
X130087065Y-113101378D01*
X130105541Y-113109373D01*
X130151740Y-113116690D01*
X130157414Y-113117865D01*
X130202728Y-113129500D01*
X130222864Y-113129500D01*
X130242263Y-113131027D01*
X130262133Y-113134174D01*
X130308671Y-113129774D01*
X130314508Y-113129500D01*
X130942069Y-113129500D01*
X131009108Y-113149185D01*
X131054863Y-113201989D01*
X131064807Y-113271147D01*
X131047608Y-113318597D01*
X130970643Y-113443375D01*
X130970641Y-113443380D01*
X130915494Y-113609802D01*
X130915493Y-113609809D01*
X130905000Y-113712513D01*
X130905000Y-114050000D01*
X133254999Y-114050000D01*
X133254999Y-113712528D01*
X133254998Y-113712513D01*
X133244505Y-113609802D01*
X133189358Y-113443380D01*
X133189356Y-113443375D01*
X133112392Y-113318597D01*
X133093952Y-113251204D01*
X133114875Y-113184541D01*
X133168517Y-113139771D01*
X133217931Y-113129500D01*
X142926899Y-113129500D01*
X142942547Y-113131227D01*
X142942574Y-113130946D01*
X142950341Y-113131680D01*
X142950342Y-113131679D01*
X142950343Y-113131680D01*
X143019726Y-113129500D01*
X143049342Y-113129500D01*
X143056244Y-113128627D01*
X143062056Y-113128169D01*
X143108809Y-113126701D01*
X143128138Y-113121084D01*
X143147194Y-113117137D01*
X143167159Y-113114616D01*
X143210636Y-113097401D01*
X143216142Y-113095516D01*
X143261057Y-113082468D01*
X143278381Y-113072221D01*
X143295849Y-113063663D01*
X143314569Y-113056253D01*
X143352408Y-113028759D01*
X143357257Y-113025574D01*
X143397522Y-113001763D01*
X143411763Y-112987520D01*
X143426544Y-112974897D01*
X143442833Y-112963063D01*
X143442835Y-112963059D01*
X143442837Y-112963059D01*
X143454711Y-112948703D01*
X143472642Y-112927028D01*
X143476555Y-112922728D01*
X143983310Y-112415973D01*
X144044631Y-112382490D01*
X144114323Y-112387474D01*
X144163138Y-112420682D01*
X144174127Y-112432886D01*
X144174130Y-112432889D01*
X144327265Y-112544148D01*
X144327270Y-112544151D01*
X144500192Y-112621142D01*
X144500197Y-112621144D01*
X144685354Y-112660500D01*
X144741719Y-112660500D01*
X144808758Y-112680185D01*
X144829400Y-112696819D01*
X145473624Y-113341043D01*
X145483471Y-113353333D01*
X145483689Y-113353154D01*
X145488657Y-113359160D01*
X145539257Y-113406677D01*
X145560201Y-113427620D01*
X145560207Y-113427626D01*
X145565697Y-113431883D01*
X145570148Y-113435684D01*
X145604235Y-113467695D01*
X145604237Y-113467696D01*
X145621867Y-113477387D01*
X145638135Y-113488072D01*
X145654038Y-113500408D01*
X145654040Y-113500409D01*
X145654042Y-113500410D01*
X145675380Y-113509643D01*
X145696943Y-113518974D01*
X145702190Y-113521545D01*
X145723734Y-113533389D01*
X145743166Y-113544072D01*
X145762667Y-113549079D01*
X145781065Y-113555378D01*
X145799541Y-113563373D01*
X145845740Y-113570690D01*
X145851414Y-113571865D01*
X145896728Y-113583500D01*
X145916864Y-113583500D01*
X145936263Y-113585027D01*
X145956133Y-113588174D01*
X146002670Y-113583774D01*
X146008507Y-113583500D01*
X180601033Y-113583500D01*
X180616681Y-113585227D01*
X180616708Y-113584946D01*
X180624475Y-113585680D01*
X180624476Y-113585679D01*
X180624477Y-113585680D01*
X180693860Y-113583500D01*
X180723476Y-113583500D01*
X180730378Y-113582627D01*
X180736190Y-113582169D01*
X180782943Y-113580701D01*
X180802272Y-113575084D01*
X180821328Y-113571137D01*
X180841293Y-113568616D01*
X180847498Y-113566158D01*
X180917075Y-113559780D01*
X180979057Y-113592031D01*
X181013762Y-113652672D01*
X181010174Y-113722449D01*
X180983539Y-113766335D01*
X180941822Y-113810758D01*
X180920875Y-113831705D01*
X180916606Y-113837209D01*
X180912815Y-113841647D01*
X180880808Y-113875730D01*
X180880805Y-113875734D01*
X180871106Y-113893377D01*
X180860428Y-113909633D01*
X180848094Y-113925534D01*
X180848089Y-113925542D01*
X180829525Y-113968443D01*
X180826954Y-113973691D01*
X180804427Y-114014667D01*
X180799420Y-114034168D01*
X180793121Y-114052564D01*
X180786393Y-114068112D01*
X180785125Y-114071044D01*
X180785124Y-114071046D01*
X180777812Y-114117216D01*
X180776627Y-114122938D01*
X180765000Y-114168223D01*
X180765000Y-114188358D01*
X180763473Y-114207757D01*
X180760325Y-114227631D01*
X180764725Y-114274177D01*
X180765000Y-114280015D01*
X180765000Y-116562668D01*
X180745315Y-116629707D01*
X180692511Y-116675462D01*
X180653605Y-116686026D01*
X180614704Y-116690000D01*
X180614703Y-116690001D01*
X180448164Y-116745186D01*
X180448162Y-116745187D01*
X180298848Y-116837286D01*
X180298844Y-116837289D01*
X180174789Y-116961344D01*
X180174786Y-116961348D01*
X180082687Y-117110662D01*
X180082686Y-117110664D01*
X180027501Y-117277203D01*
X180027500Y-117277204D01*
X180017000Y-117379984D01*
X180017000Y-118405015D01*
X180027500Y-118507795D01*
X180027501Y-118507796D01*
X180082686Y-118674335D01*
X180082687Y-118674337D01*
X180174786Y-118823651D01*
X180174789Y-118823655D01*
X180298844Y-118947710D01*
X180298848Y-118947713D01*
X180448162Y-119039812D01*
X180448164Y-119039813D01*
X180448166Y-119039814D01*
X180614703Y-119094999D01*
X180717492Y-119105500D01*
X180717497Y-119105500D01*
X182067503Y-119105500D01*
X182067508Y-119105500D01*
X182170297Y-119094999D01*
X182336834Y-119039814D01*
X182486155Y-118947711D01*
X182610211Y-118823655D01*
X182702314Y-118674334D01*
X182757499Y-118507797D01*
X182768000Y-118405008D01*
X182768000Y-117379992D01*
X182757499Y-117277203D01*
X182702314Y-117110666D01*
X182610211Y-116961345D01*
X182486155Y-116837289D01*
X182486151Y-116837286D01*
X182336837Y-116745187D01*
X182336835Y-116745186D01*
X182253565Y-116717593D01*
X182170297Y-116690001D01*
X182170295Y-116690000D01*
X182131395Y-116686026D01*
X182066704Y-116659628D01*
X182026554Y-116602447D01*
X182020000Y-116562668D01*
X182020000Y-114558780D01*
X182039685Y-114491741D01*
X182056314Y-114471104D01*
X190250600Y-106276817D01*
X190311923Y-106243333D01*
X190338281Y-106240499D01*
X191000002Y-106240499D01*
X191000008Y-106240499D01*
X191102797Y-106229999D01*
X191269334Y-106174814D01*
X191418656Y-106082712D01*
X191542712Y-105958656D01*
X191634814Y-105809334D01*
X191689999Y-105642797D01*
X191700500Y-105540009D01*
X191700499Y-104739992D01*
X191689999Y-104637203D01*
X191634814Y-104470666D01*
X191542712Y-104321344D01*
X191449049Y-104227681D01*
X191415564Y-104166358D01*
X191420548Y-104096666D01*
X191449049Y-104052319D01*
X191542712Y-103958656D01*
X191634814Y-103809334D01*
X191689999Y-103642797D01*
X191700500Y-103540009D01*
X191700499Y-102739992D01*
X191689999Y-102637203D01*
X191634814Y-102470666D01*
X191542712Y-102321344D01*
X191418656Y-102197288D01*
X191269334Y-102105186D01*
X191269332Y-102105185D01*
X191269330Y-102105184D01*
X191269329Y-102105183D01*
X191212495Y-102086350D01*
X191155050Y-102046577D01*
X191128228Y-101982061D01*
X191127500Y-101968645D01*
X191127500Y-90982964D01*
X191129228Y-90967313D01*
X191128946Y-90967287D01*
X191129680Y-90959524D01*
X191127500Y-90890140D01*
X191127500Y-90860530D01*
X191127500Y-90860524D01*
X191126626Y-90853607D01*
X191126169Y-90847792D01*
X191124701Y-90801060D01*
X191124701Y-90801058D01*
X191119080Y-90781711D01*
X191115137Y-90762665D01*
X191112616Y-90742707D01*
X191095402Y-90699230D01*
X191093518Y-90693726D01*
X191080469Y-90648809D01*
X191070213Y-90631467D01*
X191061662Y-90614010D01*
X191054253Y-90595297D01*
X191026772Y-90557473D01*
X191023568Y-90552595D01*
X190999764Y-90512345D01*
X190999760Y-90512340D01*
X190985531Y-90498112D01*
X190972896Y-90483320D01*
X190961063Y-90467033D01*
X190961060Y-90467031D01*
X190961060Y-90467030D01*
X190961059Y-90467029D01*
X190925035Y-90437228D01*
X190920713Y-90433294D01*
X190736818Y-90249399D01*
X190703333Y-90188076D01*
X190700499Y-90161718D01*
X190700499Y-89499998D01*
X190700498Y-89499981D01*
X190689999Y-89397203D01*
X190689998Y-89397200D01*
X190634814Y-89230666D01*
X190542712Y-89081344D01*
X190449049Y-88987681D01*
X190415564Y-88926358D01*
X190420548Y-88856666D01*
X190449049Y-88812319D01*
X190542712Y-88718656D01*
X190634814Y-88569334D01*
X190689999Y-88402797D01*
X190700500Y-88300009D01*
X190700499Y-87499992D01*
X190689999Y-87397203D01*
X190634814Y-87230666D01*
X190542712Y-87081344D01*
X190418656Y-86957288D01*
X190269334Y-86865186D01*
X190102797Y-86810001D01*
X190102795Y-86810000D01*
X190000016Y-86799500D01*
X190000009Y-86799500D01*
X189338281Y-86799500D01*
X189271242Y-86779815D01*
X189250600Y-86763181D01*
X188623819Y-86136400D01*
X188590334Y-86075077D01*
X188587500Y-86048719D01*
X188587500Y-81557331D01*
X188607185Y-81490292D01*
X188659989Y-81444537D01*
X188698898Y-81433973D01*
X188704305Y-81433420D01*
X188737797Y-81429999D01*
X188904334Y-81374814D01*
X189053655Y-81282711D01*
X189177711Y-81158655D01*
X189269814Y-81009334D01*
X189324999Y-80842797D01*
X189335500Y-80740008D01*
X189335500Y-79714992D01*
X189324999Y-79612203D01*
X189269814Y-79445666D01*
X189177711Y-79296345D01*
X189053655Y-79172289D01*
X189053651Y-79172286D01*
X188904337Y-79080187D01*
X188904335Y-79080186D01*
X188821065Y-79052593D01*
X188737797Y-79025001D01*
X188737795Y-79025000D01*
X188635015Y-79014500D01*
X188635008Y-79014500D01*
X187284992Y-79014500D01*
X187284984Y-79014500D01*
X187182204Y-79025000D01*
X187182203Y-79025001D01*
X187015664Y-79080186D01*
X187015662Y-79080187D01*
X186866348Y-79172286D01*
X186866344Y-79172289D01*
X186742289Y-79296344D01*
X186742286Y-79296348D01*
X186650187Y-79445662D01*
X186650186Y-79445664D01*
X186595001Y-79612203D01*
X186595000Y-79612204D01*
X186584500Y-79714984D01*
X186584500Y-80740015D01*
X186595000Y-80842795D01*
X186595001Y-80842796D01*
X186650186Y-81009335D01*
X186650187Y-81009337D01*
X186742286Y-81158651D01*
X186742289Y-81158655D01*
X186866344Y-81282710D01*
X186866348Y-81282713D01*
X187015662Y-81374812D01*
X187015664Y-81374813D01*
X187015666Y-81374814D01*
X187182203Y-81429999D01*
X187213517Y-81433198D01*
X187221102Y-81433973D01*
X187285794Y-81460369D01*
X187325946Y-81517550D01*
X187332500Y-81557331D01*
X187332500Y-86277032D01*
X187330772Y-86292681D01*
X187331054Y-86292708D01*
X187330319Y-86300475D01*
X187332500Y-86369859D01*
X187332500Y-86399477D01*
X187333371Y-86406380D01*
X187333829Y-86412199D01*
X187335298Y-86458942D01*
X187340916Y-86478275D01*
X187344862Y-86497329D01*
X187347383Y-86517287D01*
X187347386Y-86517299D01*
X187364595Y-86560765D01*
X187366487Y-86566293D01*
X187379530Y-86611187D01*
X187379530Y-86611188D01*
X187389777Y-86628515D01*
X187398335Y-86645985D01*
X187405745Y-86664701D01*
X187433229Y-86702529D01*
X187436437Y-86707413D01*
X187460234Y-86747652D01*
X187460240Y-86747660D01*
X187474469Y-86761888D01*
X187487109Y-86776687D01*
X187498934Y-86792964D01*
X187498936Y-86792965D01*
X187498937Y-86792967D01*
X187519528Y-86810001D01*
X187534957Y-86822765D01*
X187539268Y-86826687D01*
X187943244Y-87230663D01*
X188263181Y-87550600D01*
X188296666Y-87611923D01*
X188299500Y-87638281D01*
X188299500Y-88300001D01*
X188299501Y-88300019D01*
X188310000Y-88402796D01*
X188310001Y-88402799D01*
X188365185Y-88569331D01*
X188365187Y-88569336D01*
X188457289Y-88718657D01*
X188550951Y-88812319D01*
X188584436Y-88873642D01*
X188579452Y-88943334D01*
X188550951Y-88987681D01*
X188457289Y-89081342D01*
X188365187Y-89230663D01*
X188365186Y-89230666D01*
X188310001Y-89397203D01*
X188310001Y-89397204D01*
X188310000Y-89397204D01*
X188299500Y-89499983D01*
X188299500Y-90300001D01*
X188299501Y-90300019D01*
X188310000Y-90402796D01*
X188310001Y-90402799D01*
X188359637Y-90552588D01*
X188365186Y-90569334D01*
X188457288Y-90718656D01*
X188581344Y-90842712D01*
X188730666Y-90934814D01*
X188897203Y-90989999D01*
X188999991Y-91000500D01*
X189661718Y-91000499D01*
X189728757Y-91020183D01*
X189749399Y-91036818D01*
X189836181Y-91123600D01*
X189869666Y-91184923D01*
X189872500Y-91211281D01*
X189872500Y-101968645D01*
X189852815Y-102035684D01*
X189800011Y-102081439D01*
X189787505Y-102086350D01*
X189730670Y-102105183D01*
X189730669Y-102105184D01*
X189581342Y-102197289D01*
X189457289Y-102321342D01*
X189365187Y-102470663D01*
X189365186Y-102470666D01*
X189310001Y-102637203D01*
X189310001Y-102637204D01*
X189310000Y-102637204D01*
X189299500Y-102739983D01*
X189299500Y-103401718D01*
X189279815Y-103468757D01*
X189263181Y-103489399D01*
X180460400Y-112292181D01*
X180399077Y-112325666D01*
X180372719Y-112328500D01*
X171106358Y-112328500D01*
X171039319Y-112308815D01*
X170993564Y-112256011D01*
X170983620Y-112186853D01*
X170998971Y-112142500D01*
X171007179Y-112128284D01*
X171065674Y-111948256D01*
X171085460Y-111760000D01*
X171065674Y-111571744D01*
X171007179Y-111391716D01*
X170912533Y-111227784D01*
X170785871Y-111087112D01*
X170785870Y-111087111D01*
X170632734Y-110975851D01*
X170632729Y-110975848D01*
X170459807Y-110898857D01*
X170459802Y-110898855D01*
X170314001Y-110867865D01*
X170274646Y-110859500D01*
X170085354Y-110859500D01*
X170052897Y-110866398D01*
X169900197Y-110898855D01*
X169900192Y-110898857D01*
X169727270Y-110975848D01*
X169727265Y-110975851D01*
X169574129Y-111087111D01*
X169447466Y-111227785D01*
X169352821Y-111391715D01*
X169352818Y-111391722D01*
X169297751Y-111561202D01*
X169294326Y-111571744D01*
X169280448Y-111703787D01*
X169277011Y-111736489D01*
X169250426Y-111801103D01*
X169241373Y-111811207D01*
X169214401Y-111838180D01*
X169153078Y-111871666D01*
X169126718Y-111874500D01*
X164087281Y-111874500D01*
X164020242Y-111854815D01*
X163974487Y-111802011D01*
X163964543Y-111732853D01*
X163993568Y-111669297D01*
X163999600Y-111662819D01*
X166905531Y-108756888D01*
X175645043Y-100017374D01*
X175657325Y-100007537D01*
X175657144Y-100007318D01*
X175663156Y-100002343D01*
X175663162Y-100002340D01*
X175686919Y-99977040D01*
X175710677Y-99951742D01*
X175721149Y-99941269D01*
X175731624Y-99930795D01*
X175735895Y-99925288D01*
X175739675Y-99920860D01*
X175771693Y-99886767D01*
X175781388Y-99869130D01*
X175792072Y-99852863D01*
X175804408Y-99836962D01*
X175822976Y-99794051D01*
X175825542Y-99788814D01*
X175848071Y-99747835D01*
X175848072Y-99747834D01*
X175853078Y-99728334D01*
X175859376Y-99709936D01*
X175867374Y-99691458D01*
X175874688Y-99645276D01*
X175875870Y-99639565D01*
X175887500Y-99594272D01*
X175887500Y-99574141D01*
X175889027Y-99554741D01*
X175892175Y-99534867D01*
X175887775Y-99488321D01*
X175887500Y-99482483D01*
X175887500Y-97222138D01*
X175907185Y-97155099D01*
X175959989Y-97109344D01*
X175972488Y-97104435D01*
X176054334Y-97077314D01*
X176203656Y-96985212D01*
X176327712Y-96861156D01*
X176419814Y-96711834D01*
X176474999Y-96545297D01*
X176485500Y-96442509D01*
X176485499Y-95667492D01*
X176476351Y-95577943D01*
X176474999Y-95564703D01*
X176474998Y-95564700D01*
X176461002Y-95522464D01*
X176419814Y-95398166D01*
X176327712Y-95248844D01*
X176203656Y-95124788D01*
X176200342Y-95122743D01*
X176198546Y-95120748D01*
X176197989Y-95120307D01*
X176198064Y-95120211D01*
X176153618Y-95070797D01*
X176142397Y-95001834D01*
X176170240Y-94937752D01*
X176200348Y-94911665D01*
X176203342Y-94909818D01*
X176327315Y-94785845D01*
X176419356Y-94636624D01*
X176419358Y-94636619D01*
X176474505Y-94470197D01*
X176474506Y-94470190D01*
X176484999Y-94367486D01*
X176485000Y-94367473D01*
X176485000Y-94230000D01*
X174035001Y-94230000D01*
X174035001Y-94367486D01*
X174045494Y-94470197D01*
X174100641Y-94636619D01*
X174100643Y-94636624D01*
X174192684Y-94785845D01*
X174316655Y-94909816D01*
X174316659Y-94909819D01*
X174319656Y-94911668D01*
X174321279Y-94913472D01*
X174322323Y-94914298D01*
X174322181Y-94914476D01*
X174366381Y-94963616D01*
X174377602Y-95032579D01*
X174349759Y-95096661D01*
X174319661Y-95122741D01*
X174316349Y-95124783D01*
X174316343Y-95124788D01*
X174192289Y-95248842D01*
X174100187Y-95398163D01*
X174100185Y-95398168D01*
X174076250Y-95470400D01*
X174045001Y-95564703D01*
X174045001Y-95564704D01*
X174045000Y-95564704D01*
X174034500Y-95667483D01*
X174034500Y-96442501D01*
X174034501Y-96442519D01*
X174045000Y-96545296D01*
X174045001Y-96545299D01*
X174100185Y-96711831D01*
X174100186Y-96711834D01*
X174192288Y-96861156D01*
X174316344Y-96985212D01*
X174465666Y-97077314D01*
X174547505Y-97104432D01*
X174604949Y-97144205D01*
X174631772Y-97208720D01*
X174632500Y-97222138D01*
X174632500Y-99203719D01*
X174612815Y-99270758D01*
X174596181Y-99291400D01*
X165939181Y-107948400D01*
X165877858Y-107981885D01*
X165808166Y-107976901D01*
X165752233Y-107935029D01*
X165727816Y-107869565D01*
X165727500Y-107860719D01*
X165727500Y-107376465D01*
X165747185Y-107309426D01*
X165759343Y-107293500D01*
X165832533Y-107212216D01*
X165927179Y-107048284D01*
X165985674Y-106868256D01*
X166005460Y-106680000D01*
X165985674Y-106491744D01*
X165927179Y-106311716D01*
X165832533Y-106147784D01*
X165705871Y-106007112D01*
X165705870Y-106007111D01*
X165552734Y-105895851D01*
X165552729Y-105895848D01*
X165379807Y-105818857D01*
X165379802Y-105818855D01*
X165234001Y-105787865D01*
X165194646Y-105779500D01*
X165005354Y-105779500D01*
X164972897Y-105786398D01*
X164820197Y-105818855D01*
X164820192Y-105818857D01*
X164647270Y-105895848D01*
X164647265Y-105895851D01*
X164494129Y-106007111D01*
X164367466Y-106147785D01*
X164272821Y-106311715D01*
X164272818Y-106311722D01*
X164214327Y-106491740D01*
X164214326Y-106491744D01*
X164194540Y-106680000D01*
X164214326Y-106868256D01*
X164214327Y-106868259D01*
X164272818Y-107048277D01*
X164272821Y-107048284D01*
X164367467Y-107212216D01*
X164440651Y-107293494D01*
X164470880Y-107356484D01*
X164472500Y-107376465D01*
X164472500Y-108093718D01*
X164452815Y-108160757D01*
X164436181Y-108181399D01*
X164066181Y-108551399D01*
X164004858Y-108584884D01*
X163935166Y-108579900D01*
X163879233Y-108538028D01*
X163854816Y-108472564D01*
X163854500Y-108463718D01*
X163854500Y-94729964D01*
X163856228Y-94714314D01*
X163855946Y-94714288D01*
X163856680Y-94706525D01*
X163854500Y-94637154D01*
X163854500Y-94607528D01*
X163854500Y-94607524D01*
X163853627Y-94600614D01*
X163853168Y-94594785D01*
X163851700Y-94548057D01*
X163847360Y-94533120D01*
X163846082Y-94528720D01*
X163842138Y-94509674D01*
X163839616Y-94489707D01*
X163822403Y-94446233D01*
X163820515Y-94440716D01*
X163807467Y-94395805D01*
X163797223Y-94378484D01*
X163788661Y-94361007D01*
X163781253Y-94342298D01*
X163781253Y-94342297D01*
X163767056Y-94322757D01*
X163753764Y-94304462D01*
X163750561Y-94299585D01*
X163746236Y-94292272D01*
X163726763Y-94259344D01*
X163726761Y-94259342D01*
X163726759Y-94259339D01*
X163712531Y-94245112D01*
X163699896Y-94230320D01*
X163688063Y-94214033D01*
X163688060Y-94214031D01*
X163688060Y-94214030D01*
X163688059Y-94214029D01*
X163652035Y-94184228D01*
X163647713Y-94180294D01*
X163498628Y-94031209D01*
X163465143Y-93969886D01*
X163462990Y-93956506D01*
X163445674Y-93791744D01*
X163425612Y-93730000D01*
X174035000Y-93730000D01*
X175010000Y-93730000D01*
X175010000Y-92892500D01*
X175510000Y-92892500D01*
X175510000Y-93730000D01*
X176484999Y-93730000D01*
X176484999Y-93592528D01*
X176484998Y-93592513D01*
X176474505Y-93489802D01*
X176419358Y-93323380D01*
X176419356Y-93323375D01*
X176327315Y-93174154D01*
X176203345Y-93050184D01*
X176054124Y-92958143D01*
X176054119Y-92958141D01*
X175887697Y-92902994D01*
X175887690Y-92902993D01*
X175784986Y-92892500D01*
X175510000Y-92892500D01*
X175010000Y-92892500D01*
X174735029Y-92892500D01*
X174735012Y-92892501D01*
X174632302Y-92902994D01*
X174465880Y-92958141D01*
X174465875Y-92958143D01*
X174316654Y-93050184D01*
X174192684Y-93174154D01*
X174100643Y-93323375D01*
X174100641Y-93323380D01*
X174045494Y-93489802D01*
X174045493Y-93489809D01*
X174035000Y-93592513D01*
X174035000Y-93730000D01*
X163425612Y-93730000D01*
X163387179Y-93611716D01*
X163292533Y-93447784D01*
X163165871Y-93307112D01*
X163165870Y-93307111D01*
X163012734Y-93195851D01*
X163012729Y-93195848D01*
X162839807Y-93118857D01*
X162839802Y-93118855D01*
X162680470Y-93084989D01*
X162654646Y-93079500D01*
X162465354Y-93079500D01*
X162439530Y-93084989D01*
X162280197Y-93118855D01*
X162280192Y-93118857D01*
X162107270Y-93195848D01*
X162107265Y-93195851D01*
X161954129Y-93307111D01*
X161827466Y-93447785D01*
X161732821Y-93611715D01*
X161732818Y-93611722D01*
X161674327Y-93791740D01*
X161674326Y-93791744D01*
X161654540Y-93980000D01*
X161674326Y-94168256D01*
X161674327Y-94168259D01*
X161732818Y-94348277D01*
X161732821Y-94348284D01*
X161827467Y-94512216D01*
X161893947Y-94586049D01*
X161954129Y-94652888D01*
X162107265Y-94764148D01*
X162107270Y-94764151D01*
X162280192Y-94841142D01*
X162280197Y-94841144D01*
X162465354Y-94880500D01*
X162475500Y-94880500D01*
X162542539Y-94900185D01*
X162588294Y-94952989D01*
X162599500Y-95004500D01*
X162599500Y-107140500D01*
X162579815Y-107207539D01*
X162527011Y-107253294D01*
X162475500Y-107264500D01*
X162242886Y-107264500D01*
X162175847Y-107244815D01*
X162155205Y-107228181D01*
X161749766Y-106822742D01*
X161737984Y-106809109D01*
X161734604Y-106804569D01*
X161723539Y-106789706D01*
X161723537Y-106789704D01*
X161723538Y-106789704D01*
X161695932Y-106766541D01*
X161683285Y-106755928D01*
X161679313Y-106752289D01*
X161673441Y-106746417D01*
X150727205Y-95800181D01*
X150693720Y-95738858D01*
X150698704Y-95669166D01*
X150740576Y-95613233D01*
X150806040Y-95588816D01*
X150814886Y-95588500D01*
X155229739Y-95588500D01*
X155247708Y-95589809D01*
X155253089Y-95590596D01*
X155271645Y-95593315D01*
X155323987Y-95588735D01*
X155329388Y-95588500D01*
X155337673Y-95588500D01*
X155337680Y-95588500D01*
X155370413Y-95584674D01*
X155447351Y-95577943D01*
X155447354Y-95577941D01*
X155454432Y-95576481D01*
X155454443Y-95576535D01*
X155461902Y-95574881D01*
X155461890Y-95574827D01*
X155468917Y-95573160D01*
X155468923Y-95573160D01*
X155523339Y-95553354D01*
X155541479Y-95546752D01*
X155614773Y-95522465D01*
X155621320Y-95519412D01*
X155621343Y-95519462D01*
X155628237Y-95516125D01*
X155628212Y-95516075D01*
X155634655Y-95512838D01*
X155634663Y-95512836D01*
X155677676Y-95484545D01*
X155699182Y-95470401D01*
X155734822Y-95448418D01*
X155764893Y-95429870D01*
X155764898Y-95429864D01*
X155770562Y-95425387D01*
X155770596Y-95425430D01*
X155776521Y-95420604D01*
X155776486Y-95420562D01*
X155782022Y-95415916D01*
X155782021Y-95415916D01*
X155782024Y-95415915D01*
X155835010Y-95359752D01*
X156282264Y-94912497D01*
X156295883Y-94900727D01*
X156315294Y-94886278D01*
X156349075Y-94846018D01*
X156352709Y-94842052D01*
X156358583Y-94836180D01*
X156379027Y-94810323D01*
X156428667Y-94751166D01*
X156428669Y-94751161D01*
X156432637Y-94745129D01*
X156432683Y-94745159D01*
X156436795Y-94738704D01*
X156436748Y-94738675D01*
X156440532Y-94732538D01*
X156440539Y-94732530D01*
X156473172Y-94662547D01*
X156507824Y-94593550D01*
X156507826Y-94593538D01*
X156510293Y-94586763D01*
X156510346Y-94586782D01*
X156512858Y-94579554D01*
X156512807Y-94579537D01*
X156515077Y-94572684D01*
X156515077Y-94572682D01*
X156515079Y-94572679D01*
X156530695Y-94497049D01*
X156548500Y-94421927D01*
X156548500Y-94421922D01*
X156549338Y-94414754D01*
X156549392Y-94414760D01*
X156550170Y-94407144D01*
X156550117Y-94407140D01*
X156550746Y-94399949D01*
X156550625Y-94395805D01*
X156548500Y-94322757D01*
X156548500Y-93690260D01*
X156549809Y-93672290D01*
X156550030Y-93670777D01*
X156553315Y-93648355D01*
X156550109Y-93611715D01*
X156548736Y-93596017D01*
X156548500Y-93590611D01*
X156548500Y-93582327D01*
X156548500Y-93582320D01*
X156544674Y-93549586D01*
X156543515Y-93536344D01*
X156539444Y-93489809D01*
X156537943Y-93472649D01*
X156537941Y-93472644D01*
X156536483Y-93465580D01*
X156536536Y-93465568D01*
X156534878Y-93458088D01*
X156534824Y-93458101D01*
X156533160Y-93451083D01*
X156533160Y-93451077D01*
X156506749Y-93378515D01*
X156482464Y-93305226D01*
X156482461Y-93305222D01*
X156482461Y-93305220D01*
X156479409Y-93298673D01*
X156479458Y-93298650D01*
X156476125Y-93291765D01*
X156476076Y-93291790D01*
X156472838Y-93285344D01*
X156472836Y-93285337D01*
X156472831Y-93285329D01*
X156430400Y-93220815D01*
X156405332Y-93180175D01*
X156389871Y-93155108D01*
X156389867Y-93155104D01*
X156385390Y-93149441D01*
X156385432Y-93149407D01*
X156380597Y-93143472D01*
X156380556Y-93143507D01*
X156375912Y-93137972D01*
X156319752Y-93084989D01*
X154520505Y-91285742D01*
X154508723Y-91272109D01*
X154503430Y-91265000D01*
X154494278Y-91252706D01*
X154494276Y-91252704D01*
X154494277Y-91252704D01*
X154466671Y-91229541D01*
X154454024Y-91218928D01*
X154450049Y-91215286D01*
X154444180Y-91209417D01*
X154444179Y-91209416D01*
X154444177Y-91209414D01*
X154418323Y-91188972D01*
X154359166Y-91139333D01*
X154353133Y-91135365D01*
X154353161Y-91135321D01*
X154346700Y-91131204D01*
X154346673Y-91131250D01*
X154340529Y-91127460D01*
X154270547Y-91094827D01*
X154201554Y-91060177D01*
X154194770Y-91057708D01*
X154194788Y-91057658D01*
X154187546Y-91055141D01*
X154187530Y-91055191D01*
X154180677Y-91052920D01*
X154105050Y-91037304D01*
X154029920Y-91019498D01*
X154022753Y-91018661D01*
X154022759Y-91018607D01*
X154015144Y-91017829D01*
X154015140Y-91017883D01*
X154007949Y-91017253D01*
X153930757Y-91019500D01*
X150594386Y-91019500D01*
X150527347Y-90999815D01*
X150481592Y-90947011D01*
X150471648Y-90877853D01*
X150500673Y-90814297D01*
X150506705Y-90807819D01*
X157237705Y-84076818D01*
X157299028Y-84043333D01*
X157325386Y-84040499D01*
X158357502Y-84040499D01*
X158357508Y-84040499D01*
X158460297Y-84029999D01*
X158626834Y-83974814D01*
X158776156Y-83882712D01*
X158900212Y-83758656D01*
X158992314Y-83609334D01*
X158992314Y-83609333D01*
X158995948Y-83603442D01*
X159047896Y-83556717D01*
X159116858Y-83545494D01*
X159180941Y-83573337D01*
X159189168Y-83580856D01*
X159336421Y-83728108D01*
X159529921Y-83863600D01*
X159744007Y-83963429D01*
X159744016Y-83963433D01*
X159957500Y-84020634D01*
X159957500Y-82975501D01*
X160065185Y-83024680D01*
X160171737Y-83040000D01*
X160243263Y-83040000D01*
X160349815Y-83024680D01*
X160457500Y-82975501D01*
X160457500Y-84020633D01*
X160670983Y-83963433D01*
X160670992Y-83963429D01*
X160885077Y-83863600D01*
X160885079Y-83863599D01*
X161078573Y-83728113D01*
X161078579Y-83728108D01*
X161245608Y-83561079D01*
X161245613Y-83561073D01*
X161381099Y-83367579D01*
X161381100Y-83367577D01*
X161480929Y-83153492D01*
X161480933Y-83153483D01*
X161542067Y-82925326D01*
X161542069Y-82925315D01*
X161553907Y-82790000D01*
X160641186Y-82790000D01*
X160666993Y-82749844D01*
X160707500Y-82611889D01*
X160707500Y-82468111D01*
X160666993Y-82330156D01*
X160641186Y-82290000D01*
X161553907Y-82290000D01*
X161553907Y-82289999D01*
X161542069Y-82154684D01*
X161542067Y-82154673D01*
X161480933Y-81926516D01*
X161480929Y-81926507D01*
X161381100Y-81712422D01*
X161381099Y-81712420D01*
X161245613Y-81518926D01*
X161245608Y-81518920D01*
X161078582Y-81351894D01*
X160885078Y-81216399D01*
X160670992Y-81116570D01*
X160670983Y-81116566D01*
X160505374Y-81072192D01*
X160445713Y-81035827D01*
X160415184Y-80972980D01*
X160423479Y-80903605D01*
X160449783Y-80864740D01*
X163271205Y-78043319D01*
X163332528Y-78009834D01*
X163358886Y-78007000D01*
X186564119Y-78007000D01*
X186631158Y-78026685D01*
X186669657Y-78065902D01*
X186742288Y-78183654D01*
X186866344Y-78307710D01*
X186866348Y-78307713D01*
X187015662Y-78399812D01*
X187015664Y-78399813D01*
X187015666Y-78399814D01*
X187182203Y-78454999D01*
X187284992Y-78465500D01*
X187284997Y-78465500D01*
X188635003Y-78465500D01*
X188635008Y-78465500D01*
X188737797Y-78454999D01*
X188904334Y-78399814D01*
X189053655Y-78307711D01*
X189177711Y-78183655D01*
X189269814Y-78034334D01*
X189324999Y-77867797D01*
X189335500Y-77765008D01*
X189335500Y-76739992D01*
X189324999Y-76637203D01*
X189269814Y-76470666D01*
X189250342Y-76439098D01*
X189177713Y-76321348D01*
X189177710Y-76321344D01*
X189053655Y-76197289D01*
X189053651Y-76197286D01*
X188904337Y-76105187D01*
X188904335Y-76105186D01*
X188821065Y-76077593D01*
X188737797Y-76050001D01*
X188737795Y-76050000D01*
X188635015Y-76039500D01*
X188635008Y-76039500D01*
X187284992Y-76039500D01*
X187284984Y-76039500D01*
X187182204Y-76050000D01*
X187182203Y-76050001D01*
X187015664Y-76105186D01*
X187015662Y-76105187D01*
X186866348Y-76197286D01*
X186866344Y-76197289D01*
X186742288Y-76321345D01*
X186669657Y-76439098D01*
X186617709Y-76485822D01*
X186564119Y-76498000D01*
X163058992Y-76498000D01*
X163041023Y-76496691D01*
X163017089Y-76493185D01*
X162973927Y-76496962D01*
X162964758Y-76497764D01*
X162959359Y-76498000D01*
X162951057Y-76498000D01*
X162929227Y-76500551D01*
X162918312Y-76501827D01*
X162909188Y-76502625D01*
X162841392Y-76508556D01*
X162834319Y-76510017D01*
X162834308Y-76509965D01*
X162826832Y-76511622D01*
X162826845Y-76511674D01*
X162819819Y-76513339D01*
X162747260Y-76539747D01*
X162673962Y-76564036D01*
X162667420Y-76567087D01*
X162667397Y-76567039D01*
X162660507Y-76570375D01*
X162660531Y-76570422D01*
X162654076Y-76573663D01*
X162589555Y-76616098D01*
X162523849Y-76656627D01*
X162518179Y-76661111D01*
X162518146Y-76661069D01*
X162512214Y-76665901D01*
X162512248Y-76665942D01*
X162506717Y-76670582D01*
X162453728Y-76726747D01*
X158177293Y-81003181D01*
X158115970Y-81036666D01*
X158089612Y-81039500D01*
X157057498Y-81039500D01*
X157057480Y-81039501D01*
X156954703Y-81050000D01*
X156954700Y-81050001D01*
X156788168Y-81105185D01*
X156788163Y-81105187D01*
X156638842Y-81197289D01*
X156514789Y-81321342D01*
X156422687Y-81470663D01*
X156422685Y-81470668D01*
X156407150Y-81517550D01*
X156367501Y-81637203D01*
X156367501Y-81637204D01*
X156367500Y-81637204D01*
X156357000Y-81739983D01*
X156357000Y-81941500D01*
X156337315Y-82008539D01*
X156284511Y-82054294D01*
X156233000Y-82065500D01*
X133231491Y-82065500D01*
X133164452Y-82045815D01*
X133125954Y-82006600D01*
X133122711Y-82001343D01*
X132998657Y-81877289D01*
X132998656Y-81877288D01*
X132849334Y-81785186D01*
X132682797Y-81730001D01*
X132682795Y-81730000D01*
X132580010Y-81719500D01*
X131579998Y-81719500D01*
X131579980Y-81719501D01*
X131477203Y-81730000D01*
X131477200Y-81730001D01*
X131310668Y-81785185D01*
X131310663Y-81785187D01*
X131161342Y-81877289D01*
X131037289Y-82001342D01*
X130945187Y-82150663D01*
X130945185Y-82150668D01*
X130925789Y-82209202D01*
X130890001Y-82317203D01*
X130890001Y-82317204D01*
X130890000Y-82317204D01*
X130879500Y-82419983D01*
X130879500Y-83220001D01*
X130879501Y-83220019D01*
X130890000Y-83322796D01*
X130890001Y-83322799D01*
X130904840Y-83367579D01*
X130945186Y-83489334D01*
X130997716Y-83574500D01*
X131037289Y-83638657D01*
X131130951Y-83732319D01*
X131164436Y-83793642D01*
X131159452Y-83863334D01*
X131130951Y-83907681D01*
X131037289Y-84001342D01*
X130945187Y-84150663D01*
X130945186Y-84150666D01*
X130890001Y-84317203D01*
X130890001Y-84317204D01*
X130890000Y-84317204D01*
X130879500Y-84419983D01*
X130879500Y-85220001D01*
X130879501Y-85220019D01*
X130890000Y-85322796D01*
X130890001Y-85322799D01*
X130945185Y-85489331D01*
X130945186Y-85489334D01*
X131037288Y-85638656D01*
X131161344Y-85762712D01*
X131310666Y-85854814D01*
X131367505Y-85873648D01*
X131424948Y-85913418D01*
X131451772Y-85977934D01*
X131452500Y-85991353D01*
X131452500Y-91444770D01*
X131432815Y-91511809D01*
X131416181Y-91532451D01*
X131412289Y-91536342D01*
X131320187Y-91685663D01*
X131320185Y-91685668D01*
X131292349Y-91769670D01*
X131265001Y-91852203D01*
X131265001Y-91852204D01*
X131265000Y-91852204D01*
X131254500Y-91954983D01*
X131254500Y-92755001D01*
X131254501Y-92755019D01*
X131265000Y-92857796D01*
X131265001Y-92857799D01*
X131320185Y-93024331D01*
X131320186Y-93024334D01*
X131412287Y-93173655D01*
X131412289Y-93173657D01*
X131505951Y-93267319D01*
X131539436Y-93328642D01*
X131534452Y-93398334D01*
X131505951Y-93442681D01*
X131412289Y-93536342D01*
X131320187Y-93685663D01*
X131320185Y-93685668D01*
X131305495Y-93730000D01*
X131265001Y-93852203D01*
X131265001Y-93852204D01*
X131265000Y-93852204D01*
X131254500Y-93954983D01*
X131254500Y-94755001D01*
X131254501Y-94755019D01*
X131265000Y-94857796D01*
X131265001Y-94857799D01*
X131320185Y-95024331D01*
X131320187Y-95024336D01*
X131337168Y-95051866D01*
X131412288Y-95173656D01*
X131536344Y-95297712D01*
X131685666Y-95389814D01*
X131742505Y-95408648D01*
X131799948Y-95448418D01*
X131826772Y-95512934D01*
X131827500Y-95526353D01*
X131827500Y-107087032D01*
X131825772Y-107102681D01*
X131826054Y-107102708D01*
X131825319Y-107110475D01*
X131827500Y-107179859D01*
X131827500Y-107209477D01*
X131828371Y-107216380D01*
X131828829Y-107222199D01*
X131830298Y-107268942D01*
X131835916Y-107288275D01*
X131839862Y-107307329D01*
X131842383Y-107327287D01*
X131842386Y-107327299D01*
X131859595Y-107370765D01*
X131861487Y-107376293D01*
X131874530Y-107421187D01*
X131874530Y-107421188D01*
X131884777Y-107438515D01*
X131893335Y-107455985D01*
X131900745Y-107474701D01*
X131928229Y-107512529D01*
X131931437Y-107517413D01*
X131955234Y-107557652D01*
X131955240Y-107557660D01*
X131969469Y-107571888D01*
X131982109Y-107586687D01*
X131993934Y-107602964D01*
X131993936Y-107602965D01*
X131993937Y-107602967D01*
X132029957Y-107632765D01*
X132034268Y-107636687D01*
X132463920Y-108066339D01*
X132893400Y-108495819D01*
X132926885Y-108557142D01*
X132921901Y-108626834D01*
X132880029Y-108682767D01*
X132814565Y-108707184D01*
X132805719Y-108707500D01*
X127174142Y-108707500D01*
X127154743Y-108705973D01*
X127134868Y-108702825D01*
X127134867Y-108702825D01*
X127088321Y-108707225D01*
X127082483Y-108707500D01*
X127075524Y-108707500D01*
X127075520Y-108707500D01*
X127075509Y-108707501D01*
X127049761Y-108710753D01*
X127046125Y-108711213D01*
X127033736Y-108712384D01*
X126977033Y-108717745D01*
X126977029Y-108717745D01*
X126977027Y-108717746D01*
X126977024Y-108717746D01*
X126969416Y-108719448D01*
X126969354Y-108719173D01*
X126965193Y-108720172D01*
X126965263Y-108720444D01*
X126957703Y-108722384D01*
X126893158Y-108747939D01*
X126827854Y-108771451D01*
X126820909Y-108774990D01*
X126820781Y-108774740D01*
X126816992Y-108776747D01*
X126817127Y-108776992D01*
X126810295Y-108780747D01*
X126754127Y-108821555D01*
X126696727Y-108860565D01*
X126690883Y-108865718D01*
X126690699Y-108865509D01*
X126687530Y-108868392D01*
X126687720Y-108868595D01*
X126682034Y-108873934D01*
X126637798Y-108927408D01*
X126591881Y-108979490D01*
X126587499Y-108985938D01*
X126587268Y-108985781D01*
X126584917Y-108989360D01*
X126585153Y-108989510D01*
X126580974Y-108996095D01*
X126551426Y-109058888D01*
X126519904Y-109120753D01*
X126517263Y-109128090D01*
X126516999Y-109127995D01*
X126515611Y-109132049D01*
X126515878Y-109132136D01*
X126513468Y-109139551D01*
X126500462Y-109207733D01*
X126485319Y-109275478D01*
X126484586Y-109283238D01*
X126484309Y-109283211D01*
X126483972Y-109287489D01*
X126484250Y-109287507D01*
X126483760Y-109295287D01*
X124460000Y-109295287D01*
X124460000Y-73784000D01*
X124479685Y-73716961D01*
X124532489Y-73671206D01*
X124584000Y-73660000D01*
X200536000Y-73660000D01*
X200603039Y-73679685D01*
G37*
%TD.AperFunction*%
%TD*%
M02*
